<svg width="263" height="186" viewBox="0 0 263 186" fill="none" xmlns="http://www.w3.org/2000/svg">
<path d="M73.7976 54.0868C66.7843 55.0565 62.5399 62.3649 65.1681 68.9565C66.1097 71.3598 68.0914 73.5242 70.3682 74.6626C73.0527 75.9978 76.4679 76.1524 79.2648 75.0702C82.3427 73.8615 84.8866 71.0928 85.7861 67.9867C86.3061 66.1737 86.3061 63.6579 85.7861 61.8449C84.9568 58.9215 82.4692 56.1106 79.6583 54.8738C78.028 54.1711 75.5965 53.8338 73.7976 54.0868Z" fill="black"/>
<path d="M65.911 77.5408C61.526 78.5106 57.7032 81.3215 54.302 86.0719C52.9668 87.9411 52.1516 89.4309 47.4434 98.6085C41.4421 110.33 39.1793 114.954 39.109 115.699C39.0247 116.57 39.3339 117.807 39.8539 118.594L40.2053 119.128L39.4464 120.716C35.3846 129.219 33.7121 132.578 33.5435 132.62C33.4451 132.635 32.2785 132.143 30.9715 131.51C29.6644 130.892 26.9519 129.585 24.9421 128.615C22.9323 127.645 20.6836 126.563 19.9527 126.212C18.6316 125.565 18.6035 125.551 17.1418 125.551C15.8066 125.551 15.5958 125.593 14.865 125.945C13.319 126.704 12.9255 127.322 10.0162 133.351C8.58262 136.331 7.20527 139.198 6.95229 139.746C6.69931 140.28 5.96847 141.798 5.33602 143.119C2.06132 149.893 0.402883 153.393 0.206119 153.955C-0.398225 155.754 0.374774 158.256 1.89266 159.408C2.45484 159.844 4.53491 160.898 4.816 160.898C4.92844 160.898 5.13926 160.659 5.29386 160.364C5.71549 159.633 6.85391 158.523 7.7534 157.989C8.61072 157.469 10.4097 156.963 11.3795 156.963C12.3914 156.963 14.1201 157.469 15.0336 158.017C16.0737 158.649 17.2402 159.914 17.7321 160.926C18.5754 162.655 18.7159 164.285 18.1819 166.211C18.0413 166.689 17.9851 167.124 18.0273 167.166C18.3927 167.532 20.1214 167.434 21.063 166.998C22.2155 166.45 22.5388 165.902 26.2773 158.017C26.5724 157.399 27.3876 155.684 28.1043 154.222C28.8211 152.747 29.7066 150.919 30.072 150.146C30.4374 149.373 31.1963 147.785 31.7585 146.633C33.431 143.147 34.5554 140.814 35.3424 139.184C35.75 138.327 36.5652 136.626 37.1695 135.389C37.7739 134.152 38.7015 132.227 39.2355 131.103C39.7837 129.978 40.6129 128.235 41.0907 127.238C41.5826 126.226 42.4962 124.328 43.1286 122.993L44.2952 120.59L45.2368 120.196C46.2066 119.775 47.1342 118.988 47.4996 118.243C47.7947 117.652 51.5754 110.667 53.4728 107.21C54.3441 105.622 55.7777 102.994 56.6491 101.377C58.5324 97.9199 58.5324 97.9199 57.9702 101.855C57.5907 104.596 57.2956 106.788 57.0567 108.686C56.9723 109.304 56.8177 110.527 56.7053 111.398C56.5929 112.27 56.4945 113.31 56.4945 113.703C56.4945 115.657 57.5486 118.018 59.3757 120.154C59.727 120.576 59.9941 121.011 59.9519 121.124C59.6708 122.037 55.7074 131.046 52.9809 136.935C51.3927 140.379 51.6738 139.859 47.359 146.703C46.0379 148.797 44.3373 151.299 42.3837 153.983C37.7598 160.364 37.7317 160.42 37.816 162.43C37.9144 164.398 39.0388 166.042 40.894 166.928C41.5545 167.237 41.8497 167.293 43.0021 167.293C44.1546 167.293 44.4498 167.237 45.1244 166.928C46.1785 166.436 46.9093 165.747 47.8791 164.356C48.3148 163.737 49.5375 162.079 50.5916 160.687C51.6457 159.296 53.5149 156.836 54.7377 155.206C55.9604 153.576 57.9843 150.919 59.2351 149.303C61.4136 146.478 61.793 145.916 63.6061 142.908C64.5477 141.362 68.5814 134.855 68.6657 134.771C68.7922 134.644 69.1576 135.164 70.6333 137.568C71.4626 138.917 72.7837 141.067 73.5707 142.346C74.8075 144.356 76.0443 146.464 77.1546 148.46C77.3233 148.769 78.012 149.964 78.6725 151.13C80.2888 153.983 83.437 159.858 84.9689 162.866C86.3603 165.62 87.0912 166.562 88.328 167.152C89.9161 167.897 91.7573 167.855 93.2611 167.012C94.6947 166.211 95.538 164.988 95.8612 163.245C96.1282 161.826 95.8893 161.137 93.4298 156.19C92.2492 153.787 91.1108 151.454 90.9 150.99C90.7032 150.526 89.9583 148.91 89.2696 147.406C87.7096 144.019 84.3506 136.668 83.8305 135.53C83.6197 135.066 82.7202 133.098 81.8348 131.173C80.078 127.364 79.6142 126.352 79.1223 125.27C78.9536 124.876 78.5882 124.089 78.3212 123.513C78.0541 122.937 77.506 121.756 77.1265 120.913L76.4097 119.367L76.5784 118.102C77.0281 114.841 77.8433 108.826 77.9979 107.772C78.0682 107.266 78.3352 105.439 78.5741 103.696C78.8131 101.953 79.052 100.492 79.1082 100.422C79.1644 100.365 80.1623 101.588 81.3148 103.148C82.4672 104.708 83.6478 106.268 83.9289 106.634C84.3365 107.154 85.8122 108.152 91.7151 111.904C95.7066 114.448 99.2343 116.655 99.5575 116.823C100.007 117.048 100.401 117.104 101.328 117.104C102.354 117.104 102.621 117.048 103.254 116.725C105.952 115.319 106.613 111.82 104.561 109.726C104.041 109.206 100.584 106.648 92.2914 100.66C91.7151 100.253 91.2092 99.6907 90.6189 98.8193C90.1551 98.1447 89.0026 96.4722 88.075 95.123C85.3906 91.2299 84.1538 89.3888 82.6921 87.0135C80.0639 82.755 79.6423 82.1366 78.4055 80.9279C76.0865 78.637 73.0226 77.4565 69.003 77.33C67.4992 77.2878 66.8527 77.33 65.911 77.5408Z" fill="black"/>
<path d="M10.2939 160.731C8.69169 161.307 7.82031 162.488 7.82031 164.132C7.82031 166.156 9.28198 167.646 11.2918 167.66C13.4 167.674 14.8757 166.241 14.8897 164.146C14.8897 161.701 12.5286 159.944 10.2939 160.731Z" fill="black"/>
<path d="M262.659 112.989V33.5299C262.648 24.7523 259.157 16.3373 252.95 10.1306C246.743 3.92392 238.328 0.432389 229.551 0.421875H163.335C154.557 0.432389 146.142 3.92392 139.935 10.1306C133.729 16.3373 130.237 24.7523 130.227 33.5299V112.989C130.239 120.562 132.845 127.903 137.609 133.789C142.374 139.675 149.011 143.752 156.415 145.342L137.822 175.755C137.336 176.498 137.005 177.33 136.847 178.202C136.69 179.075 136.709 179.97 136.904 180.835C137.099 181.7 137.465 182.517 137.982 183.238C138.499 183.959 139.155 184.568 139.912 185.03C140.669 185.493 141.511 185.798 142.388 185.929C143.265 186.059 144.159 186.013 145.018 185.791C145.876 185.57 146.682 185.178 147.386 184.639C148.09 184.1 148.679 183.426 149.118 182.655L155.283 172.584H237.609L243.767 182.655C244.206 183.426 244.795 184.1 245.499 184.639C246.204 185.178 247.009 185.57 247.868 185.791C248.726 186.013 249.621 186.059 250.498 185.929C251.375 185.798 252.217 185.493 252.973 185.03C253.73 184.568 254.386 183.959 254.903 183.238C255.42 182.517 255.786 181.7 255.981 180.835C256.176 179.97 256.196 179.075 256.038 178.202C255.88 177.33 255.549 176.498 255.064 175.755L236.47 145.342C243.874 143.752 250.511 139.675 255.276 133.789C260.04 127.903 262.646 120.562 262.659 112.989ZM163.335 119.611C162.025 119.611 160.745 119.222 159.656 118.495C158.567 117.767 157.718 116.733 157.217 115.523C156.716 114.313 156.585 112.982 156.84 111.697C157.096 110.413 157.726 109.233 158.652 108.307C159.578 107.381 160.758 106.75 162.043 106.495C163.327 106.239 164.659 106.37 165.869 106.872C167.079 107.373 168.113 108.222 168.84 109.31C169.568 110.399 169.956 111.68 169.956 112.989C169.956 114.745 169.259 116.43 168.017 117.671C166.775 118.913 165.091 119.611 163.335 119.611ZM163.381 159.34L171.479 146.097H221.413L229.511 159.34H163.381ZM222.929 112.989C222.929 111.68 223.317 110.399 224.045 109.31C224.773 108.222 225.807 107.373 227.017 106.872C228.227 106.37 229.558 106.239 230.842 106.495C232.127 106.75 233.307 107.381 234.233 108.307C235.159 109.233 235.79 110.413 236.045 111.697C236.301 112.982 236.169 114.313 235.668 115.523C235.167 116.733 234.318 117.767 233.229 118.495C232.141 119.222 230.86 119.611 229.551 119.611C227.795 119.611 226.11 118.913 224.868 117.671C223.627 116.43 222.929 114.745 222.929 112.989ZM242.794 73.2596C242.794 76.7719 241.399 80.1403 238.915 82.6239C236.431 85.1075 233.063 86.5028 229.551 86.5028H163.335C159.822 86.5028 156.454 85.1075 153.97 82.6239C151.487 80.1403 150.091 76.7719 150.091 73.2596V33.5299C150.091 30.0176 151.487 26.6491 153.97 24.1655C156.454 21.682 159.822 20.2867 163.335 20.2867H229.551C233.063 20.2867 236.431 21.682 238.915 24.1655C241.399 26.6491 242.794 30.0176 242.794 33.5299V73.2596Z" fill="black"/>
</svg>
