<svg width="263" height="186" viewBox="0 0 263 186" fill="none" xmlns="http://www.w3.org/2000/svg">
<path d="M31.9681 54.0868C38.9813 55.0565 43.2257 62.3649 40.5976 68.9565C39.6559 71.3598 37.6742 73.5242 35.3974 74.6626C32.713 75.9978 29.2977 76.1524 26.5009 75.0702C23.4229 73.8615 20.8791 71.0928 19.9796 67.9867C19.4595 66.1737 19.4595 63.6579 19.9796 61.8449C20.8088 58.9215 23.2964 56.1106 26.1073 54.8738C27.7377 54.1711 30.1691 53.8338 31.9681 54.0868Z" fill="black"/>
<path d="M39.8546 77.5408C44.2396 78.5106 48.0624 81.3215 51.4636 86.0719C52.7988 87.9411 53.614 89.4309 58.3223 98.6085C64.3235 110.33 66.5863 114.954 66.6566 115.699C66.7409 116.57 66.4317 117.807 65.9117 118.594L65.5603 119.128L66.3193 120.716C70.381 129.219 72.0535 132.578 72.2222 132.62C72.3206 132.635 73.4871 132.143 74.7942 131.51C76.1012 130.892 78.8137 129.585 80.8235 128.615C82.8333 127.645 85.0821 126.563 85.8129 126.212C87.134 125.565 87.1621 125.551 88.6238 125.551C89.959 125.551 90.1698 125.593 90.9006 125.945C92.4466 126.704 92.8402 127.322 95.7494 133.351C97.183 136.331 98.5604 139.198 98.8133 139.746C99.0663 140.28 99.7972 141.798 100.43 143.119C103.704 149.893 105.363 153.393 105.56 153.955C106.164 155.754 105.391 158.256 103.873 159.408C103.311 159.844 101.231 160.898 100.95 160.898C100.837 160.898 100.626 160.659 100.472 160.364C100.05 159.633 98.9117 158.523 98.0122 157.989C97.1549 157.469 95.3559 156.963 94.3862 156.963C93.3742 156.963 91.6455 157.469 90.732 158.017C89.6919 158.649 88.5254 159.914 88.0335 160.926C87.1902 162.655 87.0497 164.285 87.5838 166.211C87.7243 166.689 87.7805 167.124 87.7384 167.166C87.373 167.532 85.6442 167.434 84.7026 166.998C83.5501 166.45 83.2269 165.902 79.4884 158.017C79.1932 157.399 78.3781 155.684 77.6613 154.222C76.9445 152.747 76.0591 150.919 75.6936 150.146C75.3282 149.373 74.5693 147.785 74.0071 146.633C72.3346 143.147 71.2102 140.814 70.4232 139.184C70.0156 138.327 69.2005 136.626 68.5961 135.389C67.9918 134.152 67.0642 132.227 66.5301 131.103C65.982 129.978 65.1527 128.235 64.6749 127.238C64.183 126.226 63.2694 124.328 62.637 122.993L61.4705 120.59L60.5288 120.196C59.559 119.775 58.6314 118.988 58.266 118.243C57.9709 117.652 54.1902 110.667 52.2929 107.21C51.4215 105.622 49.9879 102.994 49.1165 101.377C47.2332 97.9199 47.2332 97.9199 47.7954 101.855C48.1749 104.596 48.47 106.788 48.709 108.686C48.7933 109.304 48.9479 110.527 49.0603 111.398C49.1728 112.27 49.2711 113.31 49.2711 113.703C49.2711 115.657 48.2171 118.018 46.39 120.154C46.0386 120.576 45.7716 121.011 45.8137 121.124C46.0948 122.037 50.0582 131.046 52.7848 136.935C54.3729 140.379 54.0918 139.859 58.4066 146.703C59.7277 148.797 61.4283 151.299 63.3819 153.983C68.0058 160.364 68.0339 160.42 67.9496 162.43C67.8512 164.398 66.7269 166.042 64.8717 166.928C64.2111 167.237 63.916 167.293 62.7635 167.293C61.611 167.293 61.3159 167.237 60.6412 166.928C59.5872 166.436 58.8563 165.747 57.8866 164.356C57.4509 163.737 56.2281 162.079 55.174 160.687C54.1199 159.296 52.2507 156.836 51.028 155.206C49.8052 153.576 47.7814 150.919 46.5305 149.303C44.3521 146.478 43.9726 145.916 42.1596 142.908C41.2179 141.362 37.1842 134.855 37.0999 134.771C36.9734 134.644 36.608 135.164 35.1323 137.568C34.3031 138.917 32.9819 141.067 32.1949 142.346C30.9581 144.356 29.7213 146.464 28.611 148.46C28.4423 148.769 27.7537 149.964 27.0931 151.13C25.4768 153.983 22.3286 159.858 20.7967 162.866C19.4053 165.62 18.6744 166.562 17.4376 167.152C15.8495 167.897 14.0083 167.855 12.5045 167.012C11.0709 166.211 10.2277 164.988 9.90442 163.245C9.63738 161.826 9.87631 161.137 12.3359 156.19C13.5164 153.787 14.6548 151.454 14.8657 150.99C15.0624 150.526 15.8073 148.91 16.496 147.406C18.056 144.019 21.4151 136.668 21.9351 135.53C22.1459 135.066 23.0454 133.098 23.9308 131.173C25.6876 127.364 26.1514 126.352 26.6434 125.27C26.812 124.876 27.1774 124.089 27.4445 123.513C27.7115 122.937 28.2596 121.756 28.6391 120.913L29.3559 119.367L29.1872 118.102C28.7375 114.841 27.9223 108.826 27.7677 107.772C27.6974 107.266 27.4304 105.439 27.1915 103.696C26.9526 101.953 26.7136 100.492 26.6574 100.422C26.6012 100.365 25.6033 101.588 24.4509 103.148C23.2984 104.708 22.1178 106.268 21.8367 106.634C21.4291 107.154 19.9534 108.152 14.0505 111.904C10.059 114.448 6.53133 116.655 6.20808 116.823C5.75833 117.048 5.36481 117.104 4.43721 117.104C3.41123 117.104 3.14419 117.048 2.51174 116.725C-0.186729 115.319 -0.847292 111.82 1.20467 109.726C1.72469 109.206 5.1821 106.648 13.4743 100.66C14.0505 100.253 14.5565 99.6907 15.1468 98.8193C15.6106 98.1447 16.763 96.4722 17.6906 95.123C20.375 91.2299 21.6118 89.3888 23.0735 87.0135C25.7017 82.755 26.1233 82.1366 27.3601 80.9279C29.6791 78.637 32.743 77.4565 36.7626 77.33C38.2664 77.2878 38.913 77.33 39.8546 77.5408Z" fill="black"/>
<path d="M95.4717 160.731C97.0739 161.307 97.9453 162.488 97.9453 164.132C97.9453 166.156 96.4836 167.646 94.4738 167.66C92.3657 167.674 90.8899 166.241 90.8759 164.146C90.8759 161.701 93.237 159.944 95.4717 160.731Z" fill="black"/>
<path d="M262.659 112.989V33.5299C262.648 24.7523 259.157 16.3373 252.95 10.1306C246.743 3.92392 238.328 0.432389 229.551 0.421875H163.335C154.557 0.432389 146.142 3.92392 139.935 10.1306C133.729 16.3373 130.237 24.7523 130.227 33.5299V112.989C130.239 120.562 132.845 127.903 137.609 133.789C142.374 139.675 149.011 143.752 156.415 145.342L137.822 175.755C137.336 176.498 137.005 177.33 136.847 178.202C136.69 179.075 136.709 179.97 136.904 180.835C137.099 181.7 137.465 182.517 137.982 183.238C138.499 183.959 139.155 184.568 139.912 185.03C140.669 185.493 141.511 185.798 142.388 185.929C143.265 186.059 144.159 186.013 145.018 185.791C145.876 185.57 146.682 185.178 147.386 184.639C148.09 184.1 148.679 183.426 149.118 182.655L155.283 172.584H237.609L243.767 182.655C244.206 183.426 244.795 184.1 245.499 184.639C246.204 185.178 247.009 185.57 247.868 185.791C248.726 186.013 249.621 186.059 250.498 185.929C251.375 185.798 252.217 185.493 252.973 185.03C253.73 184.568 254.386 183.959 254.903 183.238C255.42 182.517 255.786 181.7 255.981 180.835C256.176 179.97 256.196 179.075 256.038 178.202C255.88 177.33 255.549 176.498 255.064 175.755L236.47 145.342C243.874 143.752 250.511 139.675 255.276 133.789C260.04 127.903 262.646 120.562 262.659 112.989ZM163.335 119.611C162.025 119.611 160.745 119.222 159.656 118.495C158.567 117.767 157.718 116.733 157.217 115.523C156.716 114.313 156.585 112.982 156.84 111.697C157.096 110.413 157.726 109.233 158.652 108.307C159.578 107.381 160.758 106.75 162.043 106.495C163.327 106.239 164.659 106.37 165.869 106.872C167.079 107.373 168.113 108.222 168.84 109.31C169.568 110.399 169.956 111.68 169.956 112.989C169.956 114.745 169.259 116.43 168.017 117.671C166.775 118.913 165.091 119.611 163.335 119.611ZM163.381 159.34L171.479 146.097H221.413L229.511 159.34H163.381ZM222.929 112.989C222.929 111.68 223.317 110.399 224.045 109.31C224.773 108.222 225.807 107.373 227.017 106.872C228.227 106.37 229.558 106.239 230.842 106.495C232.127 106.75 233.307 107.381 234.233 108.307C235.159 109.233 235.79 110.413 236.045 111.697C236.301 112.982 236.169 114.313 235.668 115.523C235.167 116.733 234.318 117.767 233.229 118.495C232.141 119.222 230.86 119.611 229.551 119.611C227.795 119.611 226.11 118.913 224.868 117.671C223.627 116.43 222.929 114.745 222.929 112.989ZM242.794 73.2596C242.794 76.7719 241.399 80.1403 238.915 82.6239C236.431 85.1075 233.063 86.5028 229.551 86.5028H163.335C159.822 86.5028 156.454 85.1075 153.97 82.6239C151.487 80.1403 150.091 76.7719 150.091 73.2596V33.5299C150.091 30.0176 151.487 26.6491 153.97 24.1655C156.454 21.682 159.822 20.2867 163.335 20.2867H229.551C233.063 20.2867 236.431 21.682 238.915 24.1655C241.399 26.6491 242.794 30.0176 242.794 33.5299V73.2596Z" fill="black"/>
</svg>
