<svg xmlns="http://www.w3.org/2000/svg" version="1.1" xmlns:xlink="http://www.w3.org/1999/xlink" width="512" height="512" x="0" y="0" viewBox="0 0 128 128" style="enable-background:new 0 0 512 512" xml:space="preserve" class=""><g><path d="M126 10.61a23.122 23.122 0 0 1-6.15 14.55L47.53 94.65l-.66 25.37a1 1 0 0 1-.29.69l-5 5a.984.984 0 0 1-.93.26.956.956 0 0 1-.72-.64L30.3 97.84 2.67 88.07a.987.987 0 0 1-.65-.72 1.037 1.037 0 0 1 .27-.93l5-5a1 1 0 0 1 .69-.29l25.37-.66 69.49-72.32A23.122 23.122 0 0 1 117.39 2a8.7 8.7 0 0 1 6.4 2.21 8.708 8.708 0 0 1 2.21 6.4z" fill="#000000" opacity="1" data-original="#000000" class=""></path><path d="m108.8 117.87-4.86 4.87a1.01 1.01 0 0 1-.85.28.971.971 0 0 1-.74-.51L74.54 71.47l22.53-21.65 15.15 55.14a13.315 13.315 0 0 1-3.42 12.91zM78.18 30.93 56.53 53.46 5.49 25.65a.971.971 0 0 1-.51-.74 1 1 0 0 1 .28-.85l4.87-4.86a13.315 13.315 0 0 1 12.91-3.42zM113.2 71.75l-6.3 6.3-3.52-12.82 1.65-1.65a1 1 0 0 1 1.41 0l6.76 6.76a1 1 0 0 1 0 1.41zM64.41 22.96l-1.66 1.65-12.8-3.51 6.3-6.3a1.008 1.008 0 0 1 1.42 0l6.74 6.74a1.008 1.008 0 0 1 0 1.42z" fill="#000000" opacity="1" data-original="#000000" class=""></path></g></svg>