<svg xmlns="http://www.w3.org/2000/svg" version="1.1" xmlns:xlink="http://www.w3.org/1999/xlink" width="512" height="512" x="0" y="0" viewBox="0 0 512 512" style="enable-background:new 0 0 512 512" xml:space="preserve" class=""><g><path d="M456.037 455.274H87.471V52.534h280.077c18.053 0 40.449 45.152 46.62 62.121 35.156 96.681 41.869 221.122 41.869 221.122v119.497z" style="" fill="#2e2e2e" data-original="#7a6d79" class="" opacity="1"></path><path d="M7.5 464.578h446.795c9.723 0 17.604-7.883 17.604-17.607v-90.486a23.868 23.868 0 0 0-16.742-22.781l-28.345-8.866a10.004 10.004 0 0 1-6.978-8.693c-3.335-38.694-13.202-124.242-38.682-187.753-2.639-6.578 2.18-13.737 9.267-13.737h16.996l-.009.022h37.721c4.937 0 9.383 2.973 11.264 7.539 6.104 14.812 19.094 50.017 24.428 92.732a5.2 5.2 0 0 0 5.161 4.551c11.472 0 20.199-10.331 18.245-21.638-4.084-23.635-12.514-62.1-27.667-91.931-4.896-9.638-14.858-15.644-25.667-15.644h-30.576c-10.975-27.981-38.137-47.057-69.045-47.057H7.5v421.349zm375.907-167.733c.594 7.071-6.178 12.483-12.949 10.365l-201.259-62.954a105.818 105.818 0 0 1-70.261-72.306l-12.557-44.584c-1.797-6.38 2.997-12.711 9.624-12.711h197.171c29.329 0 55.161 19.15 63.876 47.159 17.113 54.999 23.77 104.258 26.355 135.031z" style="" fill="#f7f9fa" data-original="#f7f9fa" class=""></path><path d="M504.226 197.861c-4.084-23.635-12.514-62.1-27.667-91.931-4.896-9.638-14.858-15.644-25.667-15.644h-30.576c-10.975-27.981-38.137-47.057-69.046-47.057h-40c30.909 0 58.071 19.076 69.045 47.057l10.104 24.369h16.996l-.009.022h37.72c4.937 0 9.383 2.973 11.264 7.539 6.104 14.812 19.094 50.017 24.428 92.732a5.2 5.2 0 0 0 5.161 4.551c11.474 0 20.2-10.331 18.247-21.638z" style="" fill="#ecf1f5" data-original="#ecf1f5"></path><path d="m457.651 334.226-264.752-82.557 146.98 112.511a64.919 64.919 0 0 1 25.459 51.551v48.847h89.533c9.404 0 17.028-7.624 17.028-17.028v-93.956a20.289 20.289 0 0 0-14.248-19.368z" style="" fill="#ed3333" data-original="#fe73c5" class="" opacity="1"></path><path d="m457.651 334.226-33.222-10.36a20.287 20.287 0 0 1 7.471 15.728V447.55c0 9.404-7.623 17.028-17.028 17.028h40c9.404 0 17.028-7.623 17.028-17.028v-93.956a20.29 20.29 0 0 0-14.249-19.368z" style="" fill="#d20000" data-original="#fe4fb7" class="" opacity="1"></path><path d="M7.5 114.655h23.819a19.996 19.996 0 0 1 19.223 14.491l20.536 71.689c3.661 12.78-5.932 25.509-19.223 25.509H7.5V114.655z" style="" fill="#2e2e2e" data-original="#7a6d79" class="" opacity="1"></path><path d="M251.725 463.352H79.531v-19.401c0-47.55 38.547-86.097 86.097-86.097s86.097 38.547 86.097 86.097v19.401z" style="" fill="#ed3333" data-original="#fe73c5" class="" opacity="1"></path><ellipse cx="165.628" cy="444.751" rx="59.739" ry="59.749" style="" fill="#2e2e2e" data-original="#7a6d79" class="" opacity="1"></ellipse><path d="M165.628 385.003a59.616 59.616 0 0 0-20 3.431c23.157 8.227 39.739 30.335 39.739 56.318s-16.582 48.091-39.739 56.318a59.64 59.64 0 0 0 20 3.431c32.993 0 59.739-26.75 59.739-59.749s-26.746-59.749-59.739-59.749z" style="" fill="#2e2e2e" data-original="#685e68" class="" opacity="1"></path><path d="M165.628 471.5c-14.747 0-26.744-12-26.744-26.749s11.998-26.749 26.744-26.749c14.747 0 26.745 12 26.745 26.749S180.375 471.5 165.628 471.5z" style="" fill="#f7f9fa" data-original="#f7f9fa" class=""></path><path d="M7.5 43.229h318.447l-12.723-13.372A71.95 71.95 0 0 0 261.096 7.5H7.5v35.729z" style="" fill="#ecf1f5" data-original="#ecf1f5"></path><path d="M414.168 114.655c31.675 87.109 40.261 196.752 41.65 217.61M255 115c-.005-.116.007-.229.005-.345h-159c-6.627 0-11.421 6.331-9.624 12.711l12.557 44.584a105.817 105.817 0 0 0 70.261 72.306l201.259 62.954c6.771 2.118 13.543-3.293 12.949-10.365-2.586-30.773-9.242-80.033-26.355-135.032-8.715-28.009-34.547-47.159-63.876-47.159h-8.207c.008.116.026.229.031.345" style="stroke-width:15;stroke-linecap:round;stroke-linejoin:round;stroke-miterlimit:10;" fill="none" stroke="#000000" stroke-width="15" stroke-linecap="round" stroke-linejoin="round" stroke-miterlimit="10" data-original="#000000"></path><path d="M222.994 464.578h231.301c9.723 0 17.604-7.883 17.604-17.607v-90.486a23.868 23.868 0 0 0-16.742-22.781l-28.345-8.866a10.004 10.004 0 0 1-6.978-8.693c-3.335-38.694-13.202-124.242-38.682-187.753-2.639-6.578 2.18-13.737 9.267-13.737h16.996l-.009.022h37.721c4.937 0 9.383 2.973 11.264 7.539 6.104 14.812 19.094 50.017 24.428 92.732a5.2 5.2 0 0 0 5.161 4.551c11.472 0 20.199-10.331 18.245-21.638-4.084-23.635-12.514-62.1-27.667-91.931-4.896-9.638-14.858-15.644-25.667-15.644h-30.576c-10.975-27.981-38.137-47.057-69.045-47.057H7.5M7.5 464.578h101.762" style="stroke-width:15;stroke-linecap:round;stroke-linejoin:round;stroke-miterlimit:10;" fill="none" stroke="#000000" stroke-width="15" stroke-linecap="round" stroke-linejoin="round" stroke-miterlimit="10" data-original="#000000"></path><path d="m457.651 334.226-264.752-82.557 146.98 112.511a64.919 64.919 0 0 1 25.459 51.551v48.847M7.5 114.655h23.819a19.996 19.996 0 0 1 19.223 14.491l20.536 71.689c3.661 12.78-5.932 25.509-19.223 25.509H7.5M79.531 463.352v-19.401c0-47.55 38.547-86.097 86.097-86.097h0c47.55 0 86.097 38.547 86.097 86.097v19.401" style="stroke-width:15;stroke-linecap:round;stroke-linejoin:round;stroke-miterlimit:10;" fill="none" stroke="#000000" stroke-width="15" stroke-linecap="round" stroke-linejoin="round" stroke-miterlimit="10" data-original="#000000"></path><path d="M138.165 497.807a59.441 59.441 0 0 0 27.463 6.693c32.993 0 59.739-26.75 59.739-59.749 0-32.998-26.746-59.749-59.739-59.749s-59.739 26.75-59.739 59.749a59.45 59.45 0 0 0 9.66 32.559" style="stroke-width:15;stroke-linecap:round;stroke-linejoin:round;stroke-miterlimit:10;" fill="none" stroke="#000000" stroke-width="15" stroke-linecap="round" stroke-linejoin="round" stroke-miterlimit="10" data-original="#000000"></path><path d="M165.628 471.5c-14.747 0-26.744-12-26.744-26.749s11.998-26.749 26.744-26.749c14.747 0 26.745 12 26.745 26.749S180.375 471.5 165.628 471.5zM7.5 43.229h318.447l-12.723-13.372A71.95 71.95 0 0 0 261.096 7.5H7.5" style="stroke-width:15;stroke-linecap:round;stroke-linejoin:round;stroke-miterlimit:10;" fill="none" stroke="#000000" stroke-width="15" stroke-linecap="round" stroke-linejoin="round" stroke-miterlimit="10" data-original="#000000"></path></g></svg>