<svg xmlns="http://www.w3.org/2000/svg" version="1.1" xmlns:xlink="http://www.w3.org/1999/xlink" width="512" height="512" x="0" y="0" viewBox="0 0 504 504" style="enable-background:new 0 0 512 512" xml:space="preserve" class=""><g><path fill="#d20000" d="M303.441 254.64c85.125-5.128 141.918-22.081 172.637-34.081L496 211.938V408c0 17.602-14.406 32-32 32H40c-17.61 0-32-14.398-32-32V213.223l6.8 2.379c26.231 11.597 86.802 33.117 184.641 39.039zm0 0" opacity="1" data-original="#545c66" class=""></path><g fill="#656d78"><path d="M464 55.992H40c-22 0-40 18-40 40V209.36s5.047 3.04 15.36 7.602C41.593 228.559 102.16 250.078 200 256h104c85.129-5.129 141.922-22.078 172.64-34.078 18.407-7.129 27.36-12.563 27.36-12.563V95.992c0-22-18-40-40-40zM332 40H172V16s16.383-16 80-16c63.633 0 80 16 80 16zM66.055 416.543h-16a4 4 0 0 0 0 8h16a4 4 0 0 0 0-8zM98.055 416.543h-16a4 4 0 0 0 0 8h16a4 4 0 0 0 0-8zM162.055 416.543h-16a4 4 0 0 0 0 8h16a4 4 0 0 0 0-8zM130.055 416.543h-16a4 4 0 0 0 0 8h16a4 4 0 0 0 0-8zM194.055 416.543h-16a4 4 0 0 0 0 8h16a4 4 0 0 0 0-8zM37.04 413.258c-3.743-2.48-6.583-6.168-8.009-10.38a3.99 3.99 0 0 0-5.062-2.51 3.993 3.993 0 0 0-2.512 5.066c1.984 5.894 5.95 11.046 11.176 14.504a3.986 3.986 0 0 0 5.535-1.137 3.999 3.999 0 0 0-1.129-5.543zM24 296.29c2.207 0 4-1.794 4-4v-16a4 4 0 0 0-8 0v16c0 2.214 1.793 4 4 4zM28 388.29v-16a4 4 0 0 0-8 0v16c0 2.206 1.793 4 4 4s4-1.786 4-4zM24 264.29c2.207 0 4-1.794 4-4v-16a4 4 0 0 0-8 0v16c0 2.214 1.793 4 4 4zM24 328.29c2.207 0 4-1.794 4-4v-16a4 4 0 0 0-8 0v16c0 2.214 1.793 4 4 4zM24 360.29c2.207 0 4-1.794 4-4v-16a4 4 0 0 0-8 0v16c0 2.214 1.793 4 4 4zM322.055 416.543h-16a4 4 0 0 0 0 8h16a4 4 0 0 0 0-8zM480 308.184c-2.207 0-4 1.793-4 4v16c0 2.207 1.793 4 4 4s4-1.793 4-4v-16c0-2.207-1.793-4-4-4zM480 340.184c-2.207 0-4 1.793-4 4v16c0 2.207 1.793 4 4 4s4-1.793 4-4v-16c0-2.207-1.793-4-4-4zM480 276.184c-2.207 0-4 1.793-4 4v16c0 2.207 1.793 4 4 4s4-1.793 4-4v-16c0-2.207-1.793-4-4-4zM354.055 416.543h-16a4 4 0 0 0 0 8h16a4 4 0 0 0 0-8zM480 244.184c-2.207 0-4 1.793-4 4v16c0 2.207 1.793 4 4 4s4-1.793 4-4v-16c0-2.207-1.793-4-4-4zM480 372.184c-2.207 0-4 1.793-4 4v16c0 2.207 1.793 4 4 4s4-1.793 4-4v-16c0-2.207-1.793-4-4-4zM386.055 416.543h-16a4 4 0 0 0 0 8h16a4 4 0 0 0 0-8zM479.113 404.191c-1.937-1.03-4.379-.304-5.418 1.649a20.328 20.328 0 0 1-9.574 8.969 3.997 3.997 0 0 0-2.008 5.289 3.987 3.987 0 0 0 3.649 2.359c.543 0 1.11-.113 1.636-.352a28.44 28.44 0 0 0 13.364-12.503c1.039-1.946.293-4.372-1.649-5.41zM418.055 416.543h-16a4 4 0 0 0 0 8h16a4 4 0 0 0 0-8zM450.055 416.543h-16a4 4 0 0 0 0 8h16a4 4 0 0 0 0-8zm0 0" fill="#de1d1d" opacity="1" data-original="#656d78" class=""></path></g><path fill="#7a8189" d="M16 192.543a4 4 0 0 1-4-4v-8c0-2.207 1.793-4 4-4s4 1.793 4 4v8c0 2.219-1.793 4-4 4zM16 166.945c-2.207 0-4-1.793-4-4v-17.601c0-2.207 1.793-4 4-4s4 1.793 4 4v17.601c0 2.215-1.793 4-4 4zm0-35.203c-2.207 0-4-1.781-4-4v-17.59c0-2.215 1.793-4 4-4s4 1.785 4 4v17.59c0 2.219-1.793 4-4 4zM16 96.543a4 4 0 0 1-4-4v-8c0-2.207 1.793-4 4-4s4 1.793 4 4v8c0 2.219-1.793 4-4 4zM488 192.543a4 4 0 0 1-4-4v-16c0-2.207 1.793-4 4-4s4 1.793 4 4v16c0 2.219-1.793 4-4 4zm0-32a4 4 0 0 1-4-4v-16c0-2.207 1.793-4 4-4s4 1.793 4 4v16c0 2.219-1.793 4-4 4zm0-32a4 4 0 0 1-4-4v-16c0-2.207 1.793-4 4-4s4 1.793 4 4v16c0 2.219-1.793 4-4 4zm0-32a4 4 0 0 1-4-4v-8c0-2.207 1.793-4 4-4s4 1.793 4 4v8c0 2.219-1.793 4-4 4zm0 0" opacity="1" data-original="#7a8189" class=""></path><path fill="#3a3847" d="M272 408.543a4 4 0 0 1-4-4v-16c0-2.207 1.793-4 4-4s4 1.793 4 4v16c0 2.219-1.793 4-4 4zm0-32a4 4 0 0 1-4-4v-16c0-2.207 1.793-4 4-4s4 1.793 4 4v16c0 2.219-1.793 4-4 4zm0-32a4 4 0 0 1-4-4v-16c0-2.207 1.793-4 4-4s4 1.793 4 4v16c0 2.219-1.793 4-4 4zM232 408.543a4 4 0 0 1-4-4v-16c0-2.207 1.793-4 4-4s4 1.793 4 4v16c0 2.219-1.793 4-4 4zm0-32a4 4 0 0 1-4-4v-16c0-2.207 1.793-4 4-4s4 1.793 4 4v16c0 2.219-1.793 4-4 4zm0-32a4 4 0 0 1-4-4v-16c0-2.207 1.793-4 4-4s4 1.793 4 4v16c0 2.219-1.793 4-4 4zm0 0" opacity="1" data-original="#3a3847"></path><path fill="#de1d1d" d="M228.129 308H276v132h-47.871zm0 0" opacity="1" data-original="#656d78" class=""></path><path fill="#ffce54" d="M228.129 308c0 2.2 1.8 4 4 4h40c2.2 0 4-1.8 4-4v-67.992h-48zm0 0" opacity="1" data-original="#ffce54"></path><path fill="#de1d1d" d="M260 280a8 8 0 1 1-16 0 8 8 0 0 1 16 0zm0 0" opacity="1" data-original="#656d78" class=""></path><path fill="#f6bb42" d="M252 292c-6.617 0-12-5.383-12-12s5.383-12 12-12 12 5.383 12 12-5.383 12-12 12zm0-16c-2.2 0-4 1.8-4 4s1.8 4 4 4 4-1.8 4-4-1.8-4-4-4zm0 0" opacity="1" data-original="#f6bb42"></path><path fill="#f6bb42" d="M252 300c-2.207 0-4-1.793-4-4v-8c0-2.207 1.793-4 4-4s4 1.793 4 4v8c0 2.207-1.793 4-4 4zM260.121 244.55H244.13a4 4 0 0 1 0-8h15.992a4 4 0 0 1 0 8zm0 0" opacity="1" data-original="#f6bb42"></path><path fill="#7a8189" d="M384 80.543H120a4 4 0 0 1 0-8h264a4 4 0 0 1 0 8zM252 424.559a4 4 0 0 1-4-4V332.55c0-2.207 1.793-4 4-4s4 1.793 4 4v88.008c0 2.218-1.793 4-4 4zm0 0" opacity="1" data-original="#7a8189" class=""></path><path fill="#f6bb42" d="M228.129 256h48v8h-48zm0 0" opacity="1" data-original="#f6bb42"></path><path fill="#7a8189" d="M252.129 216.008c-13.258 0-24 10.734-24 24h48c0-13.266-10.746-24-24-24zm0 0" opacity="1" data-original="#7a8189" class=""></path><path fill="#ccd1d9" d="M172 40h24.129v15.992H172zM308.129 40h24.129v15.992h-24.13zm0 0" opacity="1" data-original="#ccd1d9" class=""></path></g></svg>