<svg xmlns="http://www.w3.org/2000/svg" version="1.1" xmlns:xlink="http://www.w3.org/1999/xlink" width="512" height="512" x="0" y="0" viewBox="0 0 64 64" style="enable-background:new 0 0 512 512" xml:space="preserve" class=""><g><g data-name="29-Taxi"><path fill="#ffd45d" d="m59.5 33.56-3.05-.38a12.026 12.026 0 0 1-2.82-.71L50 31.08V33a2.006 2.006 0 0 1-2 2H19a2 2 0 0 1-1.99-1.85 14.362 14.362 0 0 1-4.09 1.13A62.08 62.08 0 0 0 6.8 35.4L4 41H1.02c-.01.18-.02.35-.02.53V46a2.006 2.006 0 0 0 2 2h4l.1-.01a5 5 0 0 0 9.8 0l.1.01h30l.1-.01a5 5 0 0 0 9.8 0l.1.01 4.33-.72A2.006 2.006 0 0 0 63 45.31v-7.78a4 4 0 0 0-3.5-3.97z" opacity="1" data-original="#ffd45d" class=""></path><path fill="#ffc551" d="m28 28 1-4h10l1 4-.02.19A25.973 25.973 0 0 0 36.8 28H30a14.215 14.215 0 0 0-1.98.13z" opacity="1" data-original="#ffc551"></path><path fill="#f2f9ff" d="M50 31.08V33a2.006 2.006 0 0 1-2 2H34v-7h2.8a25.973 25.973 0 0 1 3.18.19 27.283 27.283 0 0 1 6.87 1.68zM34 28v7H19a2 2 0 0 1-1.99-1.85 13.016 13.016 0 0 0 2.59-1.52 17.933 17.933 0 0 1 8.42-3.5A14.215 14.215 0 0 1 30 28z" opacity="1" data-original="#f2f9ff"></path><path fill="#ad313b" d="M6.8 35.4 4 41H1.02a5.987 5.987 0 0 1 4.49-5.29c.41-.1.84-.21 1.29-.31z" opacity="1" data-original="#ad313b"></path><path fill="#ffc551" d="M8.314 35.067A75.8 75.8 0 0 0 6.8 35.4L4 41H1.02c-.01.18-.02.35-.02.53V46a2.006 2.006 0 0 0 2 2h4l.1-.01a5 5 0 0 0 9.8 0l.1.01h30l.1-.01a5 5 0 0 0 9.8 0l.1.01 4.33-.72A2.006 2.006 0 0 0 63 45.31V44c-28.418 0-51.761-3.909-54.686-8.933z" opacity="1" data-original="#ffc551"></path><path fill="#f0af4c" d="M52 40a7 7 0 0 0-6.706 5H18.706A6.991 6.991 0 0 0 5.08 48H7l.1-.01a5 5 0 0 0 9.8 0l.1.01h30l.1-.01a5 5 0 0 0 9.8 0l.1.01 1.966-.327c.021-.222.034-.446.034-.673a7 7 0 0 0-7-7z" opacity="1" data-original="#f0af4c"></path><path fill="#404040" d="M12 52a5 5 0 0 1-4.9-4.01A4.619 4.619 0 0 1 7 47a5 5 0 0 1 10 0 4.619 4.619 0 0 1-.1.99A5 5 0 0 1 12 52zm0-7a2 2 0 1 0 2 2 2.006 2.006 0 0 0-2-2zM54 47a2 2 0 1 0-2 2 2.006 2.006 0 0 0 2-2zm-2-5a5 5 0 0 1 5 5 4.619 4.619 0 0 1-.1.99 5 5 0 0 1-9.8 0A4.619 4.619 0 0 1 47 47a5 5 0 0 1 5-5z" opacity="1" data-original="#404040"></path><path fill="#db3744" d="M6.07 36.859 6.8 35.4c-.45.1-.88.21-1.29.31A5.987 5.987 0 0 0 1.02 41H2.2a5.969 5.969 0 0 1 3.87-4.141z" opacity="1" data-original="#db3744"></path><circle cx="12" cy="47" r="2" fill="#cccccc" opacity="1" data-original="#cccccc"></circle><circle cx="52" cy="47" r="2" fill="#cccccc" opacity="1" data-original="#cccccc"></circle><path fill="#303030" d="M57 47a4.619 4.619 0 0 1-.1.99 5 5 0 0 1-9.8 0A4.619 4.619 0 0 1 47 47a5.669 5.669 0 0 1 .1-1.01 5 5 0 0 0 9.8 0A5.669 5.669 0 0 1 57 47z" opacity="1" data-original="#303030"></path><path fill="#adadad" d="M52 48a2 2 0 0 1-1.929-1.5A1.966 1.966 0 0 0 50 47a2 2 0 0 0 4 0 1.966 1.966 0 0 0-.071-.5A2 2 0 0 1 52 48z" opacity="1" data-original="#adadad"></path><path fill="#303030" d="M17 47a4.619 4.619 0 0 1-.1.99 5 5 0 0 1-9.8 0A4.619 4.619 0 0 1 7 47a5.669 5.669 0 0 1 .1-1.01 5 5 0 0 0 9.8 0A5.669 5.669 0 0 1 17 47z" opacity="1" data-original="#303030"></path><path fill="#adadad" d="M12 48a2 2 0 0 1-1.929-1.5A1.966 1.966 0 0 0 10 47a2 2 0 0 0 4 0 1.966 1.966 0 0 0-.071-.5A2 2 0 0 1 12 48z" opacity="1" data-original="#adadad"></path><path fill="#f0af4c" d="M30 24h-1l-1 4 .02.13A14.215 14.215 0 0 1 30 28h6.8a25.973 25.973 0 0 1 3.18.19L40 28l-.251-1C34.339 26.956 30 25.633 30 24z" opacity="1" data-original="#f0af4c"></path><path fill="#c2e6ff" d="M35 28h-1v7h14a2 2 0 0 0 1.724-1.006C41.562 33.935 35 31.279 35 28zM21.885 30.165A20.254 20.254 0 0 0 19.6 31.63a13.016 13.016 0 0 1-2.59 1.52A2 2 0 0 0 19 35h15v-1c-5.529 0-10.234-1.591-12.115-3.835z" opacity="1" data-original="#c2e6ff"></path><path d="M12 44a3 3 0 1 0 3 3 3 3 0 0 0-3-3zm0 4a1 1 0 1 1 1-1 1 1 0 0 1-1 1zM52 44a3 3 0 1 0 3 3 3 3 0 0 0-3-3zm0 4a1 1 0 1 1 1-1 1 1 0 0 1-1 1z" fill="#000000" opacity="1" data-original="#000000" class=""></path><path d="m59.62 32.57-3.042-.381a11.032 11.032 0 0 1-2.585-.648l-6.782-2.608a28.876 28.876 0 0 0-6.36-1.649l-.881-3.526A1 1 0 0 0 39 23H29a1 1 0 0 0-.97.758l-.875 3.5A19.127 19.127 0 0 0 19 30.834a13.017 13.017 0 0 1-6.2 2.451 62.792 62.792 0 0 0-7.529 1.458A6.977 6.977 0 0 0 0 41.525V46a3 3 0 0 0 3 3h3.35a6.009 6.009 0 0 0 1.19 2H1v2h58v-2h-2.54a5.993 5.993 0 0 0 1.227-2.1l3.806-.634A2.991 2.991 0 0 0 64 45.306v-7.775a5.008 5.008 0 0 0-4.38-4.961zM29.781 25h8.438l.518 2.072A29.003 29.003 0 0 0 36.8 27H30c-.25 0-.485.028-.729.038zM20.2 32.434A16.453 16.453 0 0 1 30 29h3v5H19a.987.987 0 0 1-.745-.349 14.228 14.228 0 0 0 1.945-1.217zM4.882 37l-1.5 3H2.245a4.965 4.965 0 0 1 2.637-3zM8 47a4 4 0 1 1 4 4 4 4 0 0 1-4-4zm40 0a4 4 0 1 1 4 4 4 4 0 0 1-4-4zm14-1.694a1 1 0 0 1-.835.986l-3.174.529A6 6 0 0 0 46 47H24v2h22.35a6.009 6.009 0 0 0 1.19 2H16.46A6 6 0 1 0 6 47H3a1 1 0 0 1-1-1v-4h2a1 1 0 0 0 .895-.553l2.588-5.177a56.992 56.992 0 0 1 5.559-1 15.685 15.685 0 0 0 3.356-.806A2.989 2.989 0 0 0 19 36h25v-2h-9v-5h1.8a26.882 26.882 0 0 1 9.692 1.8l2.508.964V33a1 1 0 0 1-1 1h-2v2h2a3 3 0 0 0 3-3v-.467l2.275.875a13.036 13.036 0 0 0 3.054.766l3.043.381A3 3 0 0 1 62 37.531z" fill="#000000" opacity="1" data-original="#000000" class=""></path><path d="M20 47h2v2h-2zM31 37h2v2h-2zM46 37h2v2h-2zM26 40h7v2h-7zM35 40h10v2H35zM61 51h2v2h-2z" fill="#000000" opacity="1" data-original="#000000" class=""></path></g></g></svg>