<svg width="512" height="240" viewBox="0 0 512 240" fill="none" xmlns="http://www.w3.org/2000/svg">
<path d="M476 84.4806L451.6 81.4406C443.878 80.4668 436.303 78.5596 429.04 75.7606L400 64.6406V80.0006C399.987 84.2402 398.298 88.3025 395.3 91.3003C392.302 94.2982 388.24 95.988 384 96.0006H152C147.97 95.9918 144.092 94.4628 141.141 91.7191C138.19 88.9753 136.382 85.219 136.08 81.2006C125.681 85.8174 114.654 88.864 103.36 90.2406C86.9005 92.4071 70.56 95.3975 54.4 99.2006L32 144.001H8.16C8.08 145.441 8 146.801 8 148.241V184.001C8.01266 188.24 9.70244 192.302 12.7003 195.3C15.6981 198.298 19.7604 199.988 24 200.001H56L56.8 199.921C58.6361 208.963 63.5418 217.092 70.6859 222.932C77.83 228.771 86.7732 231.961 96 231.961C105.227 231.961 114.17 228.771 121.314 222.932C128.458 217.092 133.364 208.963 135.2 199.921L136 200.001H376L376.8 199.921C378.636 208.963 383.542 217.092 390.686 222.932C397.83 228.771 406.773 231.961 416 231.961C425.227 231.961 434.17 228.771 441.314 222.932C448.458 217.092 453.364 208.963 455.2 199.921L456 200.001L490.64 194.241C494.366 193.608 497.749 191.68 500.194 188.797C502.638 185.913 503.986 182.26 504 178.481V116.241C504.003 108.445 501.159 100.916 496.004 95.0678C490.848 89.2198 483.735 85.4551 476 84.4806Z" fill="#FFD45D"/>
<path d="M224 40L232 8H312L320 40L319.84 41.52C311.399 40.4933 302.903 39.9857 294.4 40H240C234.702 39.9773 229.409 40.3248 224.16 41.04L224 40Z" fill="#FFC551"/>
<path d="M399.998 64.641V80.001C399.985 84.2406 398.296 88.3029 395.298 91.3008C392.3 94.2986 388.238 95.9884 383.998 96.001H271.998V40.001H294.398C302.901 39.9867 311.397 40.4943 319.838 41.5211C338.664 43.5975 357.139 48.1155 374.798 54.9611L399.998 64.641ZM271.998 40.001V96.001H151.998C147.968 95.9922 144.09 94.4632 141.139 91.7195C138.188 88.9758 136.38 85.2194 136.078 81.2011C143.431 77.9607 150.384 73.8802 156.798 69.041C176.464 54.0598 199.667 44.4147 224.158 41.041C229.407 40.3258 234.7 39.9783 239.998 40.001H271.998Z" fill="#F2F9FF"/>
<path d="M54.4041 99.1992L32.0041 143.999H8.16406C9.01548 134.089 12.9315 124.689 19.3683 117.105C25.8052 109.521 34.4435 104.13 44.0841 101.679C47.3641 100.879 50.8041 99.9992 54.4041 99.1992Z" fill="#AD313B"/>
<path d="M66.512 96.5352C62.4657 97.3818 58.4281 98.2699 54.4 99.1992L32 143.999H8.16C8.08 145.439 8 146.799 8 148.239V183.999C8.01266 188.239 9.70244 192.301 12.7003 195.299C15.6981 198.297 19.7604 199.986 24 199.999H56L56.8 199.919C58.6361 208.961 63.5418 217.091 70.6859 222.93C77.83 228.769 86.7732 231.959 96 231.959C105.227 231.959 114.17 228.769 121.314 222.93C128.458 217.091 133.364 208.961 135.2 199.919L136 199.999H376L376.8 199.919C378.636 208.961 383.542 217.091 390.686 222.93C397.83 228.769 406.773 231.959 416 231.959C425.227 231.959 434.17 228.769 441.314 222.93C448.458 217.091 453.364 208.961 455.2 199.919L456 199.999L490.64 194.239C494.366 193.606 497.749 191.678 500.194 188.795C502.638 185.912 503.986 182.259 504 178.479V167.999C276.656 167.999 89.912 136.727 66.512 96.5352Z" fill="#FFC551"/>
<path d="M416.001 136.001C403.945 136.005 392.211 139.9 382.546 147.107C372.88 154.314 365.798 164.447 362.353 176.001H149.649C145.699 162.359 136.706 150.731 124.496 143.476C112.286 136.221 97.7733 133.883 83.9027 136.937C70.0321 139.991 57.8429 148.208 49.8086 159.92C41.7744 171.632 38.4969 185.961 40.6414 200.001H56.0014L56.8014 199.921C58.6375 208.964 63.5432 217.093 70.6873 222.932C77.8314 228.772 86.7745 231.962 96.0014 231.962C105.228 231.962 114.171 228.772 121.315 222.932C128.46 217.093 133.365 208.964 135.201 199.921L136.001 200.001H376.001L376.801 199.921C378.637 208.964 383.543 217.093 390.687 222.932C397.831 228.772 406.774 231.962 416.001 231.962C425.228 231.962 434.171 228.772 441.315 222.932C448.459 217.093 453.365 208.964 455.201 199.921L456.001 200.001L471.729 197.385C471.897 195.609 472.001 193.817 472.001 192.001C472.001 177.149 466.101 162.905 455.599 152.403C445.097 141.901 430.853 136.001 416.001 136.001Z" fill="#F0AF4C"/>
<path d="M96.001 232C86.7685 231.998 77.821 228.803 70.6761 222.955C63.5312 217.108 58.629 208.97 56.801 199.92C56.2499 197.317 55.9817 194.661 56.001 192C56.001 181.391 60.2152 171.217 67.7167 163.716C75.2182 156.214 85.3923 152 96.001 152C106.61 152 116.784 156.214 124.285 163.716C131.787 171.217 136.001 181.391 136.001 192C136.02 194.661 135.752 197.317 135.201 199.92C133.373 208.97 128.471 217.108 121.326 222.955C114.181 228.803 105.233 231.998 96.001 232ZM96.001 176C92.8365 176 89.743 176.938 87.1118 178.696C84.4807 180.455 82.4299 182.953 81.2189 185.877C80.0079 188.801 79.691 192.018 80.3084 195.121C80.9258 198.225 82.4496 201.076 84.6873 203.314C86.9249 205.551 89.7758 207.075 92.8795 207.693C95.9832 208.31 99.2003 207.993 102.124 206.782C105.048 205.571 107.546 203.52 109.304 200.889C111.063 198.258 112.001 195.165 112.001 192C111.988 187.76 110.299 183.698 107.301 180.7C104.303 177.702 100.241 176.013 96.001 176ZM432.001 192C432.001 188.835 431.063 185.742 429.305 183.111C427.546 180.48 425.048 178.429 422.124 177.218C419.2 176.007 415.983 175.69 412.88 176.307C409.776 176.925 406.925 178.449 404.687 180.686C402.45 182.924 400.926 185.775 400.308 188.879C399.691 191.982 400.008 195.199 401.219 198.123C402.43 201.047 404.481 203.545 407.112 205.304C409.743 207.062 412.836 208 416.001 208C420.241 207.987 424.303 206.298 427.301 203.3C430.299 200.302 431.988 196.24 432.001 192ZM416.001 152C426.61 152 436.784 156.214 444.285 163.716C451.787 171.217 456.001 181.391 456.001 192C456.02 194.661 455.752 197.317 455.201 199.92C453.365 208.962 448.459 217.092 441.315 222.931C434.171 228.77 425.228 231.96 416.001 231.96C406.774 231.96 397.831 228.77 390.687 222.931C383.543 217.092 378.637 208.962 376.801 199.92C376.25 197.317 375.982 194.661 376.001 192C376.001 181.391 380.215 171.217 387.717 163.716C395.218 156.214 405.392 152 416.001 152Z" fill="#404040"/>
<path d="M48.5641 110.871L54.4041 99.1992C50.8041 99.9992 47.3641 100.879 44.0841 101.679C34.4435 104.13 25.8052 109.521 19.3683 117.105C12.9315 124.689 9.01548 134.089 8.16406 143.999H17.6041C19.6149 136.344 23.497 129.309 28.9012 123.526C34.3054 117.743 41.0623 113.395 48.5641 110.871Z" fill="#DB3744"/>
<path d="M96 208C104.837 208 112 200.837 112 192C112 183.163 104.837 176 96 176C87.1634 176 80 183.163 80 192C80 200.837 87.1634 208 96 208Z" fill="#CCCCCC"/>
<path d="M416 208C424.837 208 432 200.837 432 192C432 183.163 424.837 176 416 176C407.163 176 400 183.163 400 192C400 200.837 407.163 208 416 208Z" fill="#CCCCCC"/>
<path d="M456.001 192.002C456.02 194.663 455.752 197.318 455.201 199.922C453.365 208.964 448.459 217.094 441.315 222.933C434.171 228.772 425.228 231.962 416.001 231.962C406.774 231.962 397.831 228.772 390.687 222.933C383.543 217.094 378.637 208.964 376.801 199.922C376.25 197.318 375.982 194.663 376.001 192.002C376.026 189.29 376.293 186.586 376.801 183.922C378.637 192.964 383.543 201.094 390.687 206.933C397.831 212.772 406.774 215.962 416.001 215.962C425.228 215.962 434.171 212.772 441.315 206.933C448.459 201.094 453.365 192.964 455.201 183.922C455.709 186.586 455.976 189.29 456.001 192.002Z" fill="#303030"/>
<path d="M416 200C412.463 199.987 409.03 198.802 406.238 196.631C403.446 194.46 401.452 191.425 400.568 188C400.207 189.303 400.017 190.648 400 192C400 196.243 401.686 200.313 404.686 203.314C407.687 206.314 411.757 208 416 208C420.243 208 424.313 206.314 427.314 203.314C430.314 200.313 432 196.243 432 192C431.983 190.648 431.793 189.303 431.432 188C430.548 191.425 428.554 194.46 425.762 196.631C422.97 198.802 419.537 199.987 416 200Z" fill="#ADADAD"/>
<path d="M136.001 192.002C136.02 194.663 135.752 197.318 135.201 199.922C133.365 208.964 128.459 217.094 121.315 222.933C114.171 228.772 105.228 231.962 96.001 231.962C86.7741 231.962 77.831 228.772 70.6869 222.933C63.5428 217.094 58.6371 208.964 56.801 199.922C56.2499 197.318 55.9817 194.663 56.001 192.002C56.0255 189.29 56.2933 186.586 56.801 183.922C58.6371 192.964 63.5428 201.094 70.6869 206.933C77.831 212.772 86.7741 215.962 96.001 215.962C105.228 215.962 114.171 212.772 121.315 206.933C128.459 201.094 133.365 192.964 135.201 183.922C135.709 186.586 135.976 189.29 136.001 192.002Z" fill="#303030"/>
<path d="M96 200C92.4631 199.987 89.0304 198.802 86.2383 196.631C83.4462 194.46 81.4522 191.425 80.568 188C80.2075 189.303 80.0166 190.648 80 192C80 196.243 81.6857 200.313 84.6863 203.314C87.6869 206.314 91.7565 208 96 208C100.243 208 104.313 206.314 107.314 203.314C110.314 200.313 112 196.243 112 192C111.983 190.648 111.793 189.303 111.432 188C110.548 191.425 108.554 194.46 105.762 196.631C102.97 198.802 99.5369 199.987 96 200Z" fill="#ADADAD"/>
<path d="M240 8H232L224 40L224.16 41.04C229.409 40.3248 234.702 39.9773 240 40H294.4C302.903 39.9857 311.399 40.4933 319.84 41.52L320 40L317.992 32C274.712 31.648 240 21.064 240 8Z" fill="#F0AF4C"/>
<path d="M279.998 40H271.998V96H383.998C386.8 95.9839 389.549 95.2319 391.97 93.8195C394.39 92.4072 396.397 90.3838 397.79 87.952C332.494 87.48 279.998 66.232 279.998 40ZM175.078 57.32C168.73 60.8135 162.623 64.729 156.798 69.04C150.384 73.8792 143.431 77.9597 136.078 81.2C136.38 85.2184 138.188 88.9747 141.139 91.7184C144.09 94.4622 147.968 95.9912 151.998 96H271.998V88C227.766 88 190.126 75.272 175.078 57.32Z" fill="#C2E6FF"/>
<path d="M96 168C91.2533 168 86.6131 169.408 82.6663 172.045C78.7195 174.682 75.6434 178.43 73.8269 182.816C72.0104 187.201 71.5351 192.027 72.4612 196.682C73.3872 201.338 75.673 205.614 79.0294 208.971C82.3859 212.327 86.6623 214.613 91.3178 215.539C95.9734 216.465 100.799 215.99 105.184 214.173C109.57 212.357 113.318 209.28 115.955 205.334C118.592 201.387 120 196.747 120 192C120 185.635 117.471 179.53 112.971 175.029C108.47 170.529 102.365 168 96 168ZM96 200C94.4178 200 92.871 199.531 91.5554 198.652C90.2399 197.773 89.2145 196.523 88.609 195.061C88.0035 193.6 87.845 191.991 88.1537 190.439C88.4624 188.887 89.2243 187.462 90.3432 186.343C91.462 185.224 92.8874 184.462 94.4393 184.154C95.9911 183.845 97.5997 184.003 99.0615 184.609C100.523 185.214 101.773 186.24 102.652 187.555C103.531 188.871 104 190.418 104 192C104 194.122 103.157 196.157 101.657 197.657C100.157 199.157 98.1217 200 96 200ZM416 168C411.253 168 406.613 169.408 402.666 172.045C398.72 174.682 395.643 178.43 393.827 182.816C392.01 187.201 391.535 192.027 392.461 196.682C393.387 201.338 395.673 205.614 399.029 208.971C402.386 212.327 406.662 214.613 411.318 215.539C415.973 216.465 420.799 215.99 425.184 214.173C429.57 212.357 433.318 209.28 435.955 205.334C438.592 201.387 440 196.747 440 192C440 185.635 437.471 179.53 432.971 175.029C428.47 170.529 422.365 168 416 168ZM416 200C414.418 200 412.871 199.531 411.555 198.652C410.24 197.773 409.214 196.523 408.609 195.061C408.003 193.6 407.845 191.991 408.154 190.439C408.462 188.887 409.224 187.462 410.343 186.343C411.462 185.224 412.887 184.462 414.439 184.154C415.991 183.845 417.6 184.003 419.061 184.609C420.523 185.214 421.773 186.24 422.652 187.555C423.531 188.871 424 190.418 424 192C424 194.122 423.157 196.157 421.657 197.657C420.157 199.157 418.122 200 416 200Z" fill="black"/>
<path d="M476.96 76.56L452.624 73.512C445.547 72.626 438.603 70.8853 431.944 68.328L377.688 47.464C361.285 41.1452 344.215 36.7192 326.808 34.272L319.76 6.064C319.328 4.33254 318.33 2.79518 316.924 1.6964C315.518 0.597611 313.785 0.000492984 312 0H232C230.216 0.000492984 228.483 0.597611 227.076 1.6964C225.67 2.79518 224.672 4.33254 224.24 6.064L217.24 34.064C193.546 38.3346 171.193 48.1362 152 62.672C137.449 73.4029 120.355 80.1605 102.4 82.28C82.1039 84.9372 61.9891 88.8325 42.1682 93.944C30.0948 96.9885 19.3861 103.983 11.7453 113.814C4.10443 123.645 -0.0297896 135.749 0.000161601 148.2V184C0.000161601 190.365 2.52873 196.47 7.0296 200.971C11.5305 205.471 17.635 208 24.0002 208H50.8002C52.9005 213.903 56.1345 219.338 60.3202 224H8.00016V240H472V224H451.68C456.066 219.13 459.407 213.412 461.496 207.2L491.944 202.128C497.556 201.208 502.656 198.319 506.331 193.98C510.006 189.641 512.016 184.134 512 178.448V116.248C511.986 106.503 508.42 97.0969 501.97 89.7915C495.52 82.4861 486.628 77.782 476.96 76.56ZM238.248 16H305.752L309.896 32.576C304.739 32.2114 299.57 32.0193 294.4 32H240C238 32 236.12 32.224 234.168 32.304L238.248 16ZM161.6 75.472C184.083 58.0916 211.586 48.454 240 48H264V88H152C150.864 87.9907 149.744 87.7364 148.715 87.2546C147.687 86.7727 146.774 86.0747 146.04 85.208C151.48 82.3868 156.684 79.1309 161.6 75.472ZM39.0562 112L27.0562 136H17.9602C19.6231 130.757 22.3569 125.916 25.9883 121.785C29.6198 117.654 34.0697 114.322 39.0562 112ZM64.0002 192C64.0002 185.671 65.8769 179.484 69.3931 174.222C72.9093 168.959 77.9071 164.858 83.7543 162.436C89.6015 160.014 96.0357 159.38 102.243 160.615C108.45 161.85 114.152 164.897 118.628 169.373C123.103 173.848 126.151 179.55 127.385 185.757C128.62 191.965 127.986 198.399 125.564 204.246C123.142 210.093 119.041 215.091 113.778 218.607C108.516 222.123 102.329 224 96.0002 224C87.5132 224 79.3739 220.629 73.3727 214.627C67.3716 208.626 64.0002 200.487 64.0002 192ZM384 192C384 185.671 385.877 179.484 389.393 174.222C392.909 168.959 397.907 164.858 403.754 162.436C409.602 160.014 416.036 159.38 422.243 160.615C428.45 161.85 434.152 164.897 438.628 169.373C443.103 173.848 446.151 179.55 447.385 185.757C448.62 191.965 447.986 198.399 445.564 204.246C443.142 210.093 439.041 215.091 433.778 218.607C428.516 222.123 422.329 224 416 224C407.513 224 399.374 220.629 393.373 214.627C387.372 208.626 384 200.487 384 192ZM496 178.448C496 180.34 495.328 182.171 494.105 183.616C492.882 185.06 491.187 186.024 489.32 186.336L463.928 190.568C463.298 178.151 457.875 166.462 448.8 157.963C439.724 149.464 427.705 144.819 415.273 145.004C402.841 145.19 390.966 150.192 382.149 158.958C373.331 167.724 368.259 179.569 368 192H192V208H370.8C372.901 213.903 376.134 219.338 380.32 224H131.68C136.892 218.208 140.616 211.235 142.529 203.683C144.443 196.13 144.49 188.225 142.665 180.65C140.84 173.076 137.199 166.059 132.056 160.206C126.913 154.354 120.422 149.841 113.145 147.058C105.867 144.275 98.022 143.306 90.2861 144.233C82.5501 145.161 75.1562 147.957 68.743 152.382C62.3297 156.806 57.0898 162.725 53.4759 169.628C49.862 176.53 47.9826 184.209 48.0002 192H24.0002C21.8784 192 19.8436 191.157 18.3433 189.657C16.843 188.157 16.0002 186.122 16.0002 184V152H32.0002C33.4868 152.001 34.9443 151.587 36.209 150.806C37.4737 150.024 38.4956 148.906 39.1602 147.576L59.8642 106.16C74.5468 102.76 89.389 100.09 104.336 98.16C113.495 97.0048 122.499 94.8424 131.184 91.712C133.249 95.4248 136.267 98.5202 139.925 100.68C143.584 102.84 147.752 103.986 152 104H352V88H280V48H294.4C320.912 47.9797 347.199 52.8617 371.936 62.4L392 70.112V80C392 82.1217 391.157 84.1566 389.657 85.6569C388.157 87.1572 386.122 88 384 88H368V104H384C390.365 104 396.47 101.471 400.971 96.9706C405.472 92.4697 408 86.3652 408 80V76.264L426.2 83.264C434.067 86.2863 442.27 88.344 450.632 89.392L474.976 92.44C480.78 93.1652 486.119 95.9847 489.99 100.369C493.861 104.753 495.999 110.399 496 116.248V178.448Z" fill="black"/>
<path d="M160 192H176V208H160V192ZM248 112H264V128H248V112ZM368 112H384V128H368V112ZM208 136H264V152H208V136ZM280 136H360V152H280V136ZM488 224H504V240H488V224Z" fill="black"/>
</svg>
