<svg xmlns="http://www.w3.org/2000/svg" version="1.1" xmlns:xlink="http://www.w3.org/1999/xlink" width="512" height="512" x="0" y="0" viewBox="0 0 512 512" style="enable-background:new 0 0 512 512" xml:space="preserve" class=""><g><path fill="#dfdfdd" d="M282.871 7.5h-9.68c-5.152 0-9.332 4.18-9.332 9.332v30.875h50.637l-11.45-26.871A21.93 21.93 0 0 0 282.872 7.5zm0 0" opacity="1" data-original="#dfdfdd"></path><path fill="#eeeeed" d="M421.504 127.82 389.59 59.453a20.355 20.355 0 0 0-18.45-11.746H244.614a20.365 20.365 0 0 0-18.449 11.746l-10.21 21.879a20.134 20.134 0 0 1-18.24 11.617H37.044a15.867 15.867 0 0 0-14.379 9.153l-10.84 23.23a45.99 45.99 0 0 0-3.719 26.86l18.833 115.374h412.44l63.02-106.902c5.86-9.937-1.308-22.476-12.843-22.476h-51.778a17.958 17.958 0 0 1-16.273-10.368zm0 0" opacity="1" data-original="#eeeeed" class=""></path><path fill="#dfdfdd" d="M116.242 92.95H37.043a15.867 15.867 0 0 0-14.379 9.152l-10.84 23.23a45.99 45.99 0 0 0-3.719 26.86l18.833 115.374H180.8c-61.227-29.793-64.79-116.285-64.559-174.617zm0 0" opacity="1" data-original="#dfdfdd"></path><path fill="#495059" d="m18.824 217.84 8.113 49.726H439.38l29.312-49.726zm0 0" opacity="1" data-original="#495059" class=""></path><path fill="#41464f" d="M134.828 217.84H18.824l8.113 49.726h153.864c-21.856-10.636-36.363-28.5-45.973-49.726zm0 0" opacity="1" data-original="#41464f"></path><path fill="#a2d5ec" d="M396.918 75.16H288.105a8.026 8.026 0 0 0-8.023 8.028v19.523a8.023 8.023 0 0 0 8.023 8.023h125.422zm0 0" opacity="1" data-original="#a2d5ec"></path><path fill="#8fcae6" d="M330.078 110.734h83.45l-16.61-35.574h-31.262zm0 0" opacity="1" data-original="#8fcae6"></path><path fill="#79ace2" d="M7.504 274.133c0-6.555 5.934-11.637 12.371-10.399a47.93 47.93 0 0 0 30.508-4.195 47.929 47.929 0 0 1 42.879 0 47.945 47.945 0 0 0 42.875 0 47.929 47.929 0 0 1 42.879 0 47.945 47.945 0 0 0 42.875 0 47.929 47.929 0 0 1 42.879 0 47.954 47.954 0 0 0 42.878 0 47.92 47.92 0 0 1 42.875 0 47.954 47.954 0 0 0 42.88 0 47.92 47.92 0 0 1 42.874 0 47.93 47.93 0 0 0 30.508 4.195c6.438-1.238 12.371 3.844 12.371 10.399v8.351c0 20.344-16.492 36.84-36.84 36.84H44.344c-20.344 0-36.84-16.492-36.84-36.84zm0 0" opacity="1" data-original="#79ace2" class=""></path><path fill="#cd2c22" d="M492.332 177.738H321.469c-5.547 0-9.176 5.809-6.746 10.793l14.289 29.309h139.68zm0 0" opacity="1" data-original="#77c09f" class=""></path><path fill="#495059" d="M90.258 28.102h-31.38a7.362 7.362 0 0 0-7.358 7.359v57.488h46.097V35.461a7.362 7.362 0 0 0-7.36-7.36zm0 0" opacity="1" data-original="#495059" class=""></path><path fill="#f6c273" d="M90.258 28.102h-31.38a7.362 7.362 0 0 0-7.358 7.359v21.828h46.097V35.461a7.362 7.362 0 0 0-7.36-7.36zm0 0" opacity="1" data-original="#f6c273" class=""></path><path fill="#495059" d="M173.96 28.102h-31.374a7.363 7.363 0 0 0-7.363 7.359v57.488h46.097V35.461a7.36 7.36 0 0 0-7.36-7.36zm0 0" opacity="1" data-original="#495059" class=""></path><path fill="#f6c273" d="M173.96 28.102h-31.374a7.363 7.363 0 0 0-7.363 7.359v21.828h46.097V35.461a7.36 7.36 0 0 0-7.36-7.36zm0 0" opacity="1" data-original="#f6c273" class=""></path><path d="M66 194.98h12.57c4.145 0 7.5-3.355 7.5-7.5a7.5 7.5 0 0 0-7.5-7.5H66a7.5 7.5 0 1 0 0 15zm0-62.3h12.57a7.5 7.5 0 0 0 7.5-7.5 7.5 7.5 0 0 0-7.5-7.5H66c-4.14 0-7.5 3.36-7.5 7.5 0 4.14 3.36 7.5 7.5 7.5zm-27.234 23.652c0 4.14 3.359 7.5 7.5 7.5H58.84a7.5 7.5 0 1 0 0-15H46.266a7.5 7.5 0 0 0-7.5 7.5zm64.21 7.5a7.5 7.5 0 1 0 0-15H90.403a7.5 7.5 0 1 0 0 15zm406.036-21.852c-4.04-7.07-11.313-11.292-19.457-11.292h-9.735v-23.614c0-4.14-3.36-7.5-7.5-7.5-4.14 0-7.5 3.36-7.5 7.5v23.614h-27.043a10.5 10.5 0 0 1-9.48-6.04l-31.914-68.367a27.76 27.76 0 0 0-14.793-14.039 7.498 7.498 0 0 0-9.766 4.137 7.501 7.501 0 0 0 4.137 9.766 12.802 12.802 0 0 1 6.832 6.48l2.352 5.035h-97.036c-8.562 0-15.527 6.965-15.527 15.524v19.523c0 8.563 6.965 15.527 15.527 15.527H408.75l5.957 12.758c4.164 8.926 13.223 14.692 23.07 14.692h51.778c3.883 0 5.793 2.613 6.433 3.734.64 1.121 1.918 4.094-.05 7.437l-7.887 13.38H321.469a14.912 14.912 0 0 0-12.723 7.054 14.916 14.916 0 0 0-.766 14.527l9.032 18.52H25.195l-9.687-59.356a38.355 38.355 0 0 1 3.11-22.48l10.839-23.227a8.403 8.403 0 0 1 7.586-4.828h160.672c10.687 0 20.512-6.257 25.031-15.941l10.215-21.879a12.906 12.906 0 0 1 11.652-7.422h69.86c.007 0 .015.004.027.004s.023-.004.04-.004h30.347a7.499 7.499 0 1 0 0-14.996h-25.434l-9.508-22.312A29.382 29.382 0 0 0 282.871 0h-9.68c-9.28 0-16.832 7.55-16.832 16.832v23.375h-11.75c-10.777 0-20.683 6.309-25.242 16.074l-10.21 21.88a12.675 12.675 0 0 1-11.446 7.284h-8.89V35.461c0-8.195-6.669-14.86-14.86-14.86h-31.379c-8.195 0-14.86 6.665-14.86 14.86v49.984h-22.609V35.461c0-8.195-6.664-14.86-14.86-14.86H58.88c-8.191 0-14.86 6.665-14.86 14.86v49.984h-6.976c-9.04 0-17.352 5.293-21.176 13.485l-10.84 23.226a53.26 53.26 0 0 0-4.32 31.242l16.754 102.66a17.793 17.793 0 0 0-10.863 4.087 18.092 18.092 0 0 0-6.59 13.988v8.351c0 24.45 19.887 44.336 44.336 44.336h9.808c4.145 0 7.5-3.355 7.5-7.5a7.496 7.496 0 0 0-7.5-7.496h-9.808c-16.176 0-29.34-13.164-29.34-29.34v-8.351c0-1.332.8-2.137 1.144-2.422.477-.39 1.262-.816 2.309-.613 2.402.464 4.836.754 7.27.89.234.024.468.035.707.035h.02c9.39.41 18.847-1.558 27.284-5.777 11.325-5.664 24.844-5.664 36.168 0 15.524 7.762 34.059 7.762 49.586 0 11.324-5.664 24.844-5.664 36.168 0 15.524 7.762 34.063 7.762 49.586 0 11.324-5.664 24.844-5.664 36.168 0 15.524 7.762 34.063 7.762 49.586 0 11.324-5.664 24.848-5.664 36.168 0 15.523 7.762 34.062 7.762 49.586 0 11.324-5.66 24.848-5.66 36.172 0a55.255 55.255 0 0 0 7.703 3.133c.004 0 .004.004.004.004 8.86 2.855 18.398 3.48 27.574 1.715 1.05-.203 1.832.222 2.305.613.343.285 1.144 1.09 1.144 2.422v8.351c0 16.176-13.16 29.34-29.34 29.34h-353a7.499 7.499 0 1 0 0 14.996H442.32c24.446 0 44.336-19.886 44.336-44.336v-8.351c0-5.43-2.402-10.528-6.594-13.988-4.12-3.403-9.476-4.782-14.69-3.778a40.316 40.316 0 0 1-11.024.574l54.511-92.468c4.133-7.012 4.192-15.422.153-22.493zm-220.907-38.746a.527.527 0 0 1-.527-.523V83.188c0-.293.238-.528.527-.528h104.04l9.605 20.578H288.105zm-16.742-86.402c0-1.008.82-1.832 1.832-1.832h9.676a14.407 14.407 0 0 1 13.277 8.777l7 16.43h-31.785zm-128.64 18.77h31.097v49.847h-31.097zm-83.703 0h31.097v49.847H59.02zM439.418 252.73c-15.484-7.656-33.918-7.625-49.371.102-11.324 5.66-24.848 5.66-36.168 0-15.527-7.762-34.063-7.762-49.586 0-11.324 5.66-24.844 5.66-36.168 0-15.523-7.762-34.063-7.762-49.586 0-11.324 5.66-24.848 5.66-36.172 0-15.523-7.762-34.058-7.762-49.582 0-11.324 5.66-24.847 5.66-36.172 0-15.523-7.766-34.058-7.766-49.586 0a40.588 40.588 0 0 1-14.23 4.074l-5.152-31.566H455.563zm24.988-42.39H333.7l-12.23-25.102h157.738zm-266-15.36h12.57c4.145 0 7.5-3.355 7.5-7.5a7.5 7.5 0 0 0-7.5-7.5h-12.57a7.5 7.5 0 0 0-7.5 7.5c0 4.145 3.356 7.5 7.5 7.5zm0-62.3h12.57a7.5 7.5 0 0 0 7.5-7.5 7.5 7.5 0 0 0-7.5-7.5h-12.57a7.5 7.5 0 0 0-7.5 7.5 7.5 7.5 0 0 0 7.5 7.5zm36.973 31.152a7.5 7.5 0 0 0 7.5-7.5c0-4.144-3.356-7.5-7.5-7.5h-12.57a7.5 7.5 0 1 0 0 15zm7.16 31.148h12.574a7.5 7.5 0 1 0 0-15H242.54a7.5 7.5 0 1 0 0 15zm12.574-77.3H242.54c-4.14 0-7.5 3.36-7.5 7.5 0 4.14 3.36 7.5 7.5 7.5h12.574c4.14 0 7.5-3.36 7.5-7.5 0-4.14-3.36-7.5-7.5-7.5zm-144.98 77.3h12.574a7.5 7.5 0 1 0 0-15h-12.574a7.499 7.499 0 0 0-7.496 7.5c0 4.145 3.355 7.5 7.496 7.5zm0-62.3h12.574c4.14 0 7.5-3.36 7.5-7.5 0-4.14-3.36-7.5-7.5-7.5h-12.574a7.499 7.499 0 0 0-7.496 7.5c0 4.14 3.355 7.5 7.496 7.5zm36.976 31.152a7.5 7.5 0 1 0 0-15h-12.57a7.497 7.497 0 0 0-7.5 7.5 7.5 7.5 0 0 0 7.5 7.5zm7.16 31.148h12.575a7.5 7.5 0 1 0 0-15H154.27a7.5 7.5 0 1 0 0 15zm36.977-31.148a7.5 7.5 0 1 0 0-15h-12.574a7.5 7.5 0 1 0 0 15zM154.27 132.68h12.574c4.14 0 7.5-3.36 7.5-7.5 0-4.14-3.36-7.5-7.5-7.5H154.27c-4.141 0-7.5 3.36-7.5 7.5 0 4.14 3.359 7.5 7.5 7.5zm0 0" fill="#000000" opacity="1" data-original="#000000" class=""></path></g></svg>