<svg xmlns="http://www.w3.org/2000/svg" version="1.1" xmlns:xlink="http://www.w3.org/1999/xlink" width="512" height="512" x="0" y="0" viewBox="0 0 512 512" style="enable-background:new 0 0 512 512" xml:space="preserve" class=""><g><path d="m106.026 381.032-73.87-58.103c-4.035-3.035-5.356-8.394-2.934-11.901 11.839-17.147 34.647-23.003 57.057-14.65l66.808 37.897-47.061 46.757zM130.817 405.822l58.255 74.022c3.035 4.035 8.394 5.356 11.901 2.934l4.404-3.041c14.503-10.014 19.456-29.305 12.391-48.26l-40.043-72.564-46.908 46.909z" style="" fill="#cd2c22" data-original="#ff2c5c" class="" opacity="1"></path><path d="m110.336 310.025-41.794 41.523 37.484 29.484 47.062-46.756z" style="" fill="#a70202" data-original="#e62753" class="" opacity="1"></path><path d="M126.039 153.474c-9.243-9.243-10.055-23.998-1.801-34.133 11.867-14.572 26.765-30.822 35.693-39.75 13.132-13.132 13.351-10.425 29.524-20.748l31.215 31.215c-10.323 16.174-7.616 16.392-20.748 29.524-8.928 8.928-25.178 23.826-39.75 35.693-10.135 8.254-24.89 7.442-34.133-1.801zM358.527 385.962c-9.243-9.243-10.055-23.998-1.801-34.133 11.867-14.572 26.765-30.822 35.693-39.75 13.132-13.132 13.351-10.425 29.524-20.748l31.215 31.215c-10.323 16.174-7.616 16.392-20.748 29.524-8.928 8.928-25.178 23.826-39.75 35.693-10.135 8.254-24.891 7.442-34.133-1.801z" style="" fill="#dedede" data-original="#c3d3db" class="" opacity="1"></path><path d="m242.334 241.286 91.137-91.137L51.15 61.447c-5.813-1.484-11.593-.071-15.439 3.775L11.859 89.074c-7.988 7.988-4.559 22.631 6.717 28.686l223.758 123.526z" style="" fill="#cd2c22" data-original="#ff2c5c" class="" opacity="1"></path><path d="m269.68 130.107-81.36 81.361 54.014 29.818 91.137-91.136z" style="" fill="#a70202" data-original="#e62753" class="" opacity="1"></path><path d="m270.715 269.667 91.137-91.137 88.703 282.321c1.484 5.813.071 11.593-3.775 15.439l-23.852 23.852c-7.988 7.988-22.631 4.559-28.686-6.717L270.715 269.667z" style="" fill="#cd2c22" data-original="#ff2c5c" class="" opacity="1"></path><path d="M442.734 140.218 289.627 293.324c-25.691 25.691-53.003 49.653-81.598 71.589l-72.845 55.882c-16.864 12.937-36.921 14.502-47.7 3.722-10.78-10.78-9.215-30.836 3.722-47.7l55.882-72.845c21.936-28.595 45.898-55.907 71.589-81.598L371.783 69.267c20.931-20.931 44.968-38.369 70.363-50.341 21.869-10.31 45.114-16.769 56.406-5.477s4.833 34.536-5.477 56.406c-11.972 25.394-29.411 49.432-50.341 70.363z" style="" fill="#ffffff" data-original="#e0f3fc" class="" opacity="1"></path><path d="M498.552 13.449c-3.974-3.974-9.433-5.742-15.788-5.925.457 11.759-4.642 26.673-11.395 40.997-11.972 25.395-29.411 49.433-50.341 70.363L267.921 271.991c-25.691 25.691-53.003 49.653-81.598 71.589l-72.845 55.882c-10.727 8.229-22.742 11.849-32.843 10.626.759 5.606 3.022 10.604 6.848 14.43 10.78 10.78 30.836 9.215 47.7-3.722l72.845-55.882c28.595-21.936 55.907-45.898 81.598-71.589l153.106-153.106c20.931-20.931 38.369-44.968 50.341-70.363 10.312-21.871 16.771-45.116 5.479-56.407z" style="" fill="#dedede" data-original="#c3d3db" class="" opacity="1"></path><path d="m455.42 110.896-5.228 5.228c-4.855 4.855-59.171-49.46-54.315-54.315l5.228-5.228c3.296-3.296 8.133-4.334 12.071-2.592 19.627 8.682 36.153 25.209 44.835 44.835 1.743 3.94.704 8.777-2.591 12.072z" style="" fill="#51c4f5" data-original="#51c4f5"></path><path d="M427.284 286.005a7.501 7.501 0 0 0-9.338-1.018c-5.063 3.232-8.526 5.15-11.308 6.691l-1.131.628-24.921-79.325 20.978-20.978a7.5 7.5 0 1 0-10.608-10.607c-.013.013.013-.014 0 0L284.352 287.999c-25.396 25.396-52.604 49.267-80.867 70.948l-68.225 52.337c-.025.019-.051.034-.075.053l-.042.037-4.511 3.46c-13.617 10.445-29.883 12.323-37.836 4.371-7.954-7.954-6.075-24.22 4.371-37.836l3.453-4.501c.018-.022.038-.04.055-.062.032-.041.057-.084.088-.125l52.291-68.164a819.696 819.696 0 0 1 11.135-14.186 7.501 7.501 0 0 0-11.696-9.394 824.104 824.104 0 0 0-11.341 14.449l-10.405 13.563-40.758-23.114a7.611 7.611 0 0 0-1.075-.502c-7.522-2.81-15.198-4.234-22.817-4.234-17.857 0-33.546 7.891-43.042 21.646-4.675 6.759-2.641 16.657 4.526 22.106l56.754 44.644c-14.364 19.642-15.337 43.126-2.145 56.318 6.225 6.226 14.743 9.298 24.067 9.298 10.431 0 21.87-3.857 32.239-11.438l44.656 56.748c3.467 4.56 8.735 7.042 13.847 7.042 2.922 0 5.795-.812 8.249-2.509l4.417-3.045c17.32-11.968 23.411-34.897 15.156-57.054a7.539 7.539 0 0 0-.461-1.005l-25.588-46.379 13.845-10.621c24.778-19.008 48.75-39.674 71.44-61.553l70.573 127.825a7.5 7.5 0 1 0 13.133-7.251l-72.59-131.478 73.447-73.447 25.446 80.996.016.052 49.288 156.885c.759 3.157.07 6.178-1.851 8.104l-23.852 23.852c-2.347 2.347-5.461 2.29-7.108 2.048-3.955-.583-7.662-3.27-9.714-7.091l-17.623-31.92a7.502 7.502 0 0 0-13.133 7.251l17.582 31.844c4.276 7.961 12.016 13.477 20.702 14.757a25.55 25.55 0 0 0 3.719.275c6.171 0 11.925-2.299 16.183-6.557l23.859-23.859c5.739-5.754 7.88-14.203 5.725-22.602a7.617 7.617 0 0 0-.109-.385l-29.057-92.488a413.27 413.27 0 0 0 9.063-8.751c9.22-9.22 11.286-12.638 15.081-19.489 1.542-2.784 3.461-6.249 6.691-11.314a7.5 7.5 0 0 0-1.021-9.338l-31.223-31.211zM36.673 316.92c-.874-.658-1.14-1.481-1.161-1.814 6.671-9.539 17.805-15.005 30.585-15.005 5.64 0 11.365 1.038 17.026 3.087l38.405 21.779-28.083 36.608L36.8 317.017a6.073 6.073 0 0 0-.127-.097zm174.273 117.673c5.55 15.451 1.641 31.062-9.803 38.97l-4.246 2.927c-.333-.02-1.157-.286-1.816-1.161a5.555 5.555 0 0 0-.099-.129l-44.566-56.635 36.316-27.859 24.214 43.887zm228.768-103.991c-3.147 5.682-4.45 8.034-12.565 16.15a324.172 324.172 0 0 1-3.467 3.408l-13.571-43.198c1.123-.676 2.328-1.347 3.797-2.161a224.957 224.957 0 0 0 6.971-3.988l22.823 22.815c-1.687 2.82-2.922 5.05-3.988 6.974z" fill="#000000" opacity="1" data-original="#000000" class=""></path><path d="M503.905 8.096c-11.996-11.997-33.836-10.653-64.914 3.997-25.556 12.048-50.618 29.97-72.475 51.827l-67.496 67.496-79.325-24.921.628-1.131c1.541-2.783 3.459-6.246 6.691-11.308a7.501 7.501 0 0 0-1.018-9.338l-31.213-31.223a7.502 7.502 0 0 0-9.338-1.021c-5.064 3.23-8.53 5.149-11.314 6.691-6.851 3.795-10.269 5.861-19.489 15.081a415.612 415.612 0 0 0-8.751 9.063L53.403 54.251a6.27 6.27 0 0 0-.385-.109c-8.4-2.154-16.848-.014-22.609 5.732L6.556 83.725C1.453 88.829-.837 96.083.275 103.627c1.279 8.686 6.796 16.426 14.681 20.661l187.74 103.652a845.292 845.292 0 0 0-29.564 32.29 7.5 7.5 0 0 0 5.66 12.42 7.485 7.485 0 0 0 5.666-2.582 831.022 831.022 0 0 1 39.545-42.42l82.308-82.308.059-.059 70.755-70.755a269.544 269.544 0 0 1 11.078-10.456c.771 4.898 4.779 9.997 7.576 13.551 4.517 5.739 11.034 12.93 18.352 20.248 7.319 7.318 14.509 13.836 20.248 18.352 3.556 2.799 8.657 6.802 13.556 7.57a267.822 267.822 0 0 1-10.461 11.084l-23.89 23.889a7.5 7.5 0 0 0 10.607 10.607l23.89-23.889c21.857-21.858 39.779-46.919 51.827-72.475 14.65-31.074 15.995-52.914 3.997-64.911zM165.249 84.852c8.116-8.116 10.468-9.418 16.15-12.565 1.924-1.066 4.154-2.301 6.973-3.987l22.815 22.823a224.957 224.957 0 0 0-3.988 6.971c-.813 1.469-1.484 2.674-2.161 3.797L161.84 88.32a324.51 324.51 0 0 1 3.409-3.468zm48.358 131.977L22.131 111.114c-3.745-2.011-6.432-5.718-7.015-9.673-.243-1.647-.299-4.761 2.048-7.108L41.01 70.488c1.932-1.928 4.954-2.616 8.111-1.858L205.6 117.791c.025.009.05.015.076.024l81.379 25.567-73.448 73.447zM424.738 87.263c-10.764-10.764-17.604-19.07-20.407-23.306l2.117-2.117c1.08-1.08 2.65-1.515 3.734-1.036 17.805 7.877 33.138 23.21 41.015 41.014.48 1.084.043 2.655-1.036 3.735l-2.117 2.117c-4.236-2.803-12.542-9.643-23.306-20.407zm61.601-20.651c-5.46 11.58-12.228 23.062-20.077 34.167a17.135 17.135 0 0 0-1.346-5.03c-9.486-21.442-27.223-39.179-48.665-48.665a17.127 17.127 0 0 0-5.03-1.346c11.105-7.849 22.588-14.617 34.168-20.077 23.699-11.172 41.161-13.707 47.909-6.959 6.749 6.751 4.212 24.213-6.959 47.91zM98.732 402.661a7.502 7.502 0 0 0 10.608 10.608l63.584-63.584a7.5 7.5 0 0 0-10.607-10.607l-63.585 63.583z" fill="#000000" opacity="1" data-original="#000000" class=""></path></g></svg>