<svg xmlns="http://www.w3.org/2000/svg" version="1.1" xmlns:xlink="http://www.w3.org/1999/xlink" width="512" height="512" x="0" y="0" viewBox="0 0 682.667 682.667" style="enable-background:new 0 0 512 512" xml:space="preserve" class=""><g><defs><clipPath id="a" clipPathUnits="userSpaceOnUse"><path d="M0 512h512V0H0Z" fill="#000000" opacity="1" data-original="#000000"></path></clipPath></defs><g clip-path="url(#a)" transform="matrix(1.33333 0 0 -1.33333 0 682.667)"><path d="M0 0h-253.979c-22.367 0-40.5-18.133-40.5-40.5v-118.937H40.5V-40.5C40.5-18.133 22.368 0 0 0" style="fill-opacity:1;fill-rule:nonzero;stroke:none" transform="translate(382.99 504.5)" fill="#ececec" data-original="#ececec" class=""></path><path d="M0 0h-284.859c-29.606 0-53.606-24-53.606-53.605v-285.77H53.606v285.77C53.606-24 29.606 0 0 0" style="fill-opacity:1;fill-rule:nonzero;stroke:none" transform="translate(398.43 383.119)" fill="#d20000" data-original="#ff919e" class="" opacity="1"></path><path d="M0 0h-50.101c-13.829 0-25.04-11.211-25.04-25.04v-125.724H25.04V-25.04C25.04-11.211 13.829 0 0 0" style="fill-opacity:1;fill-rule:nonzero;stroke:none" transform="translate(281.05 194.508)" fill="#6a647f" data-original="#6a647f"></path><path d="M0 0h-21.809c-10.045 0-18.189-8.143-18.189-18.188v-43.753c0-10.045 8.144-18.188 18.189-18.188H0c10.045 0 18.188 8.143 18.188 18.188v43.753C18.188-8.143 10.045 0 0 0" style="fill-opacity:1;fill-rule:nonzero;stroke:none" transform="translate(143.842 194.508)" fill="#ffea98" data-original="#ffea98" class=""></path><path d="M0 0h-21.809c-10.045 0-18.189-8.143-18.189-18.188V-61.94c0-10.046 8.144-18.189 18.189-18.189H0c10.045 0 18.188 8.143 18.188 18.189v43.752C18.188-8.143 10.045 0 0 0" style="fill-opacity:1;fill-rule:nonzero;stroke:none" transform="translate(143.842 325.137)" fill="#ffea98" data-original="#ffea98" class=""></path><path d="M0 0h-21.809c-10.045 0-18.188-8.143-18.188-18.188V-61.94c0-10.046 8.143-18.189 18.188-18.189H0c10.045 0 18.189 8.143 18.189 18.189v43.752C18.189-8.143 10.045 0 0 0" style="fill-opacity:1;fill-rule:nonzero;stroke:none" transform="translate(266.904 325.137)" fill="#ffea98" data-original="#ffea98" class=""></path><path d="M0 0h21.809c10.045 0 18.189-8.143 18.189-18.188v-43.753c0-10.045-8.144-18.188-18.189-18.188H0c-10.045 0-18.188 8.143-18.188 18.188v43.753C-18.188-8.143-10.045 0 0 0" style="fill-opacity:1;fill-rule:nonzero;stroke:none" transform="translate(368.158 194.508)" fill="#ffea98" data-original="#ffea98" class=""></path><path d="M0 0h21.809c10.045 0 18.189-8.143 18.189-18.188V-61.94c0-10.046-8.144-18.189-18.189-18.189H0c-10.045 0-18.188 8.143-18.188 18.189v43.752C-18.188-8.143-10.045 0 0 0" style="fill-opacity:1;fill-rule:nonzero;stroke:none" transform="translate(368.158 325.137)" fill="#ffea98" data-original="#ffea98" class=""></path><path d="M0 0h-384.994c-16.891 0-30.585-13.693-30.585-30.584V-49.45c0-9.387 7.611-16.997 16.998-16.997H13.587c9.388 0 16.997 7.61 16.997 16.997v18.866C30.584-13.693 16.891 0 0 0" style="fill-opacity:1;fill-rule:nonzero;stroke:none" transform="translate(448.497 73.947)" fill="#d7d6d9" data-original="#d7d6d9"></path><path d="M0 0c0 56.739 14.345 110.125 39.602 156.737h-7.474c-29.606 0-53.606-24-53.606-53.605v-285.769h76.709C20.349-130.362 0-67.561 0 0" style="fill-opacity:1;fill-rule:nonzero;stroke:none" transform="translate(81.442 226.381)" fill="#ef0000" data-original="#ff737d" class="" opacity="1"></path><path d="M0 0h-55.27c-16.891 0-30.584-13.693-30.584-30.584V-49.45c0-9.387 7.609-16.997 16.997-16.997H45.907A330.2 330.2 0 0 0 0 0" style="fill-opacity:1;fill-rule:nonzero;stroke:none" transform="translate(118.773 73.947)" fill="#c5c4c9" data-original="#c5c4c9"></path><path d="M0 0c0 9.833-.5 20.25 1.237 29.621H-1.25c-10.045 0-18.188-8.143-18.188-18.189V-32.32c0-10.045 8.143-18.189 18.188-18.189h21.81a18.08 18.08 0 0 1 10.966 3.703C13.041-39.302 0-21.179 0 0" style="fill-opacity:1;fill-rule:nonzero;stroke:none" transform="translate(123.282 295.517)" fill="#f9d888" data-original="#f9d888" class=""></path><path d="M0 0c0 9.833-.5 20.25 1.237 29.621H-1.25c-10.045 0-18.188-8.143-18.188-18.189V-32.32c0-10.045 8.143-18.189 18.188-18.189h21.809c4.125 0 7.916 1.389 10.966 3.703C13.041-39.302 0-21.179 0 0" style="fill-opacity:1;fill-rule:nonzero;stroke:none" transform="translate(246.345 295.517)" fill="#f9d888" data-original="#f9d888" class=""></path><path d="M0 0c0 9.833-.5 20.25 1.237 29.621H-1.25c-10.045 0-18.188-8.143-18.188-18.189V-32.32c0-10.045 8.143-18.189 18.188-18.189h21.809c4.125 0 7.915 1.389 10.966 3.703C13.041-39.302 0-21.179 0 0" style="fill-opacity:1;fill-rule:nonzero;stroke:none" transform="translate(369.408 295.517)" fill="#f9d888" data-original="#f9d888" class=""></path><path d="M0 0c0 9.833-.5 20.25 1.237 29.621H-1.25c-10.045 0-18.188-8.143-18.188-18.189V-32.32c0-10.045 8.143-18.189 18.188-18.189h21.81a18.08 18.08 0 0 1 10.966 3.703C13.041-39.302 0-21.179 0 0" style="fill-opacity:1;fill-rule:nonzero;stroke:none" transform="translate(123.282 164.888)" fill="#f9d888" data-original="#f9d888" class=""></path><path d="M0 0c0 9.833-.5 20.25 1.237 29.621H-1.25c-10.045 0-18.188-8.143-18.188-18.189V-32.32c0-10.045 8.143-18.189 18.188-18.189h21.809c4.125 0 7.915 1.389 10.966 3.703C13.041-39.302 0-21.179 0 0" style="fill-opacity:1;fill-rule:nonzero;stroke:none" transform="translate(369.408 164.888)" fill="#f9d888" data-original="#f9d888" class=""></path><path d="M0 0h-21.809c-10.045 0-18.189-8.143-18.189-18.188V-61.94c0-10.046 8.144-18.189 18.189-18.189H0c10.045 0 18.188 8.143 18.188 18.189v43.752C18.188-8.143 10.045 0 0 0Z" style="stroke-width:15;stroke-linecap:round;stroke-linejoin:round;stroke-miterlimit:10;stroke-dasharray:none;stroke-opacity:1" transform="translate(143.842 194.508)" fill="none" stroke="#000000" stroke-width="15" stroke-linecap="round" stroke-linejoin="round" stroke-miterlimit="10" stroke-dasharray="none" stroke-opacity="" data-original="#000000" class=""></path><path d="M0 0h-21.809c-10.045 0-18.189-8.144-18.189-18.188v-43.753c0-10.045 8.144-18.188 18.189-18.188H0c10.045 0 18.188 8.143 18.188 18.188v43.753C18.188-8.144 10.045 0 0 0Z" style="stroke-width:15;stroke-linecap:round;stroke-linejoin:round;stroke-miterlimit:10;stroke-dasharray:none;stroke-opacity:1" transform="translate(143.842 325.137)" fill="none" stroke="#000000" stroke-width="15" stroke-linecap="round" stroke-linejoin="round" stroke-miterlimit="10" stroke-dasharray="none" stroke-opacity="" data-original="#000000" class=""></path><path d="M0 0h-21.809c-10.045 0-18.188-8.144-18.188-18.188v-43.753c0-10.045 8.143-18.188 18.188-18.188H0c10.045 0 18.188 8.143 18.188 18.188v43.753C18.188-8.144 10.045 0 0 0Z" style="stroke-width:15;stroke-linecap:round;stroke-linejoin:round;stroke-miterlimit:10;stroke-dasharray:none;stroke-opacity:1" transform="translate(266.904 325.137)" fill="none" stroke="#000000" stroke-width="15" stroke-linecap="round" stroke-linejoin="round" stroke-miterlimit="10" stroke-dasharray="none" stroke-opacity="" data-original="#000000" class=""></path><path d="M0 0h21.809c10.045 0 18.189-8.143 18.189-18.188V-61.94c0-10.046-8.144-18.189-18.189-18.189H0c-10.045 0-18.188 8.143-18.188 18.189v43.752C-18.188-8.143-10.045 0 0 0Z" style="stroke-width:15;stroke-linecap:round;stroke-linejoin:round;stroke-miterlimit:10;stroke-dasharray:none;stroke-opacity:1" transform="translate(368.158 194.508)" fill="none" stroke="#000000" stroke-width="15" stroke-linecap="round" stroke-linejoin="round" stroke-miterlimit="10" stroke-dasharray="none" stroke-opacity="" data-original="#000000" class=""></path><path d="M0 0h21.809c10.045 0 18.189-8.144 18.189-18.188v-43.753c0-10.045-8.144-18.188-18.189-18.188H0c-10.045 0-18.188 8.143-18.188 18.188v43.753C-18.188-8.144-10.045 0 0 0Z" style="stroke-width:15;stroke-linecap:round;stroke-linejoin:round;stroke-miterlimit:10;stroke-dasharray:none;stroke-opacity:1" transform="translate(368.158 325.137)" fill="none" stroke="#000000" stroke-width="15" stroke-linecap="round" stroke-linejoin="round" stroke-miterlimit="10" stroke-dasharray="none" stroke-opacity="" data-original="#000000" class=""></path><path d="M0 0v-56.817c.628-.107 19.912 0 19.912 0" style="stroke-width:15;stroke-linecap:round;stroke-linejoin:round;stroke-miterlimit:10;stroke-dasharray:none;stroke-opacity:1" transform="translate(368.238 472)" fill="none" stroke="#000000" stroke-width="15" stroke-linecap="round" stroke-linejoin="round" stroke-miterlimit="10" stroke-dasharray="none" stroke-opacity="" data-original="#000000" class=""></path><path d="M0 0v-56.865" style="stroke-width:15;stroke-linecap:round;stroke-linejoin:round;stroke-miterlimit:10;stroke-dasharray:none;stroke-opacity:1" transform="translate(123.85 472)" fill="none" stroke="#000000" stroke-width="15" stroke-linecap="round" stroke-linejoin="round" stroke-miterlimit="10" stroke-dasharray="none" stroke-opacity="" data-original="#000000" class=""></path><path d="M0 0v-56.865" style="stroke-width:15;stroke-linecap:round;stroke-linejoin:round;stroke-miterlimit:10;stroke-dasharray:none;stroke-opacity:1" transform="translate(163.2 472)" fill="none" stroke="#000000" stroke-width="15" stroke-linecap="round" stroke-linejoin="round" stroke-miterlimit="10" stroke-dasharray="none" stroke-opacity="" data-original="#000000" class=""></path><path d="M0 0h39.351" style="stroke-width:15;stroke-linecap:round;stroke-linejoin:round;stroke-miterlimit:10;stroke-dasharray:none;stroke-opacity:1" transform="translate(123.85 444.543)" fill="none" stroke="#000000" stroke-width="15" stroke-linecap="round" stroke-linejoin="round" stroke-miterlimit="10" stroke-dasharray="none" stroke-opacity="" data-original="#000000" class=""></path><path d="M0 0h-23.742v-56.346H0" style="stroke-width:15;stroke-linecap:round;stroke-linejoin:round;stroke-miterlimit:10;stroke-dasharray:none;stroke-opacity:1" transform="translate(341.466 471.48)" fill="none" stroke="#000000" stroke-width="15" stroke-linecap="round" stroke-linejoin="round" stroke-miterlimit="10" stroke-dasharray="none" stroke-opacity="" data-original="#000000" class=""></path><path d="M0 0h-21.991" style="stroke-width:15;stroke-linecap:round;stroke-linejoin:round;stroke-miterlimit:10;stroke-dasharray:none;stroke-opacity:1" transform="translate(339.715 443.308)" fill="none" stroke="#000000" stroke-width="15" stroke-linecap="round" stroke-linejoin="round" stroke-miterlimit="10" stroke-dasharray="none" stroke-opacity="" data-original="#000000" class=""></path><path d="M0 0h31.404" style="stroke-width:15;stroke-linecap:round;stroke-linejoin:round;stroke-miterlimit:10;stroke-dasharray:none;stroke-opacity:1" transform="translate(260.26 472)" fill="none" stroke="#000000" stroke-width="15" stroke-linecap="round" stroke-linejoin="round" stroke-miterlimit="10" stroke-dasharray="none" stroke-opacity="" data-original="#000000" class=""></path><path d="M0 0v-55.049" style="stroke-width:15;stroke-linecap:round;stroke-linejoin:round;stroke-miterlimit:10;stroke-dasharray:none;stroke-opacity:1" transform="translate(275.898 470.184)" fill="none" stroke="#000000" stroke-width="15" stroke-linecap="round" stroke-linejoin="round" stroke-miterlimit="10" stroke-dasharray="none" stroke-opacity="" data-original="#000000" class=""></path><path d="M0 0c0-15.703-12.73-28.432-28.433-28.432-15.702 0-28.432 12.729-28.432 28.432s12.73 28.433 28.432 28.433C-12.73 28.433 0 15.703 0 0Z" style="stroke-width:15;stroke-linecap:round;stroke-linejoin:round;stroke-miterlimit:10;stroke-dasharray:none;stroke-opacity:1" transform="translate(243.713 443.567)" fill="none" stroke="#000000" stroke-width="15" stroke-linecap="round" stroke-linejoin="round" stroke-miterlimit="10" stroke-dasharray="none" stroke-opacity="" data-original="#000000" class=""></path><path d="M0 0h284.859c9.055 0 17.58-2.254 25.06-6.218v87.099c0 22.368-18.132 40.5-40.501 40.5H15.44c-22.367 0-40.5-18.132-40.5-40.5V-6.218A53.355 53.355 0 0 0 0 0Z" style="stroke-width:15;stroke-linecap:round;stroke-linejoin:round;stroke-miterlimit:10;stroke-dasharray:none;stroke-opacity:1" transform="translate(113.57 383.119)" fill="none" stroke="#000000" stroke-width="15" stroke-linecap="round" stroke-linejoin="round" stroke-miterlimit="10" stroke-dasharray="none" stroke-opacity="" data-original="#000000" class=""></path><path d="M0 0v-72.927c1.162.134 2.341.21 3.539.21h384.994a30.85 30.85 0 0 0 3.538-.21v179.795" style="stroke-width:15;stroke-linecap:round;stroke-linejoin:round;stroke-miterlimit:10;stroke-dasharray:none;stroke-opacity:1" transform="translate(59.964 146.664)" fill="none" stroke="#000000" stroke-width="15" stroke-linecap="round" stroke-linejoin="round" stroke-miterlimit="10" stroke-dasharray="none" stroke-opacity="" data-original="#000000" class=""></path><path d="M0 0v45.981c0 29.605-24 53.605-53.606 53.605h-284.859c-29.606 0-53.606-24-53.606-53.605v-152.849" style="stroke-width:15;stroke-linecap:round;stroke-linejoin:round;stroke-miterlimit:10;stroke-dasharray:none;stroke-opacity:1" transform="translate(452.036 283.532)" fill="none" stroke="#000000" stroke-width="15" stroke-linecap="round" stroke-linejoin="round" stroke-miterlimit="10" stroke-dasharray="none" stroke-opacity="" data-original="#000000" class=""></path><path d="M0 0v95.521c0 13.83-11.211 25.04-25.04 25.04h-50.101c-13.829 0-25.04-11.21-25.04-25.04V0z" style="stroke-width:15;stroke-linecap:round;stroke-linejoin:round;stroke-miterlimit:10;stroke-dasharray:none;stroke-opacity:1" transform="translate(306.09 73.947)" fill="none" stroke="#000000" stroke-width="15" stroke-linecap="round" stroke-linejoin="round" stroke-miterlimit="10" stroke-dasharray="none" stroke-opacity="" data-original="#000000" class=""></path><path d="M0 0h-384.994c-16.891 0-30.585-13.693-30.585-30.584V-49.45c0-9.387 7.61-16.997 16.998-16.997H13.587c9.388 0 16.997 7.61 16.997 16.997v18.866C30.584-13.693 16.891 0 0 0Z" style="stroke-width:15;stroke-linecap:round;stroke-linejoin:round;stroke-miterlimit:10;stroke-dasharray:none;stroke-opacity:1" transform="translate(448.497 73.947)" fill="none" stroke="#000000" stroke-width="15" stroke-linecap="round" stroke-linejoin="round" stroke-miterlimit="10" stroke-dasharray="none" stroke-opacity="" data-original="#000000" class=""></path></g></g></svg>