<svg xmlns="http://www.w3.org/2000/svg" version="1.1" xmlns:xlink="http://www.w3.org/1999/xlink" width="512" height="512" x="0" y="0" viewBox="0 0 512 512" style="enable-background:new 0 0 512 512" xml:space="preserve" class=""><g><path fill="#554e56" d="M181.538 117.016a7.726 7.726 0 0 1-7.726-7.726V58.916a7.726 7.726 0 1 1 15.452 0v50.373a7.726 7.726 0 0 1-7.726 7.727zM324.777 117.016a7.725 7.725 0 0 1-7.726-7.726V58.916a7.726 7.726 0 1 1 15.452 0v50.373a7.727 7.727 0 0 1-7.726 7.727z" opacity="1" data-original="#554e56" class=""></path><path fill="#7a6d79" d="m139.938 478.688-26.787 2.061h-30.65a5.151 5.151 0 0 1-4.941-3.695l-9.214-31.261 43.904-23.455 41.843 23.455-9.214 29.2a5.151 5.151 0 0 1-4.941 3.695z" opacity="1" data-original="#7a6d79" class=""></path><path fill="#685e68" d="m141.499 424.948-16.254 20.845-9.214 31.261a5.151 5.151 0 0 1-4.941 3.695h30.909a5.151 5.151 0 0 0 4.941-3.695l9.214-31.261z" opacity="1" data-original="#685e68" class=""></path><path fill="#7a6d79" d="m427.439 478.688-26.787 2.061h-30.65a5.151 5.151 0 0 1-4.941-3.695l-9.214-31.261 43.904-23.455 41.843 23.455-9.214 29.2a5.151 5.151 0 0 1-4.941 3.695z" opacity="1" data-original="#7a6d79" class=""></path><path fill="#685e68" d="m428.999 424.948-16.254 20.845-9.214 31.261a5.151 5.151 0 0 1-4.941 3.695h30.91a5.151 5.151 0 0 0 4.941-3.695l9.214-31.261z" opacity="1" data-original="#685e68" class=""></path><path fill="#e31717" d="m451.717 443.732-27.818 2.061H60.284c-21.973 0-39.785-17.812-39.785-39.785v-93.127c0-27.883 2.304-55.718 6.888-83.221 1.538-9.23 9.518-15.994 18.875-15.992 70.626.015 351.048-.039 420.202-.052a18.264 18.264 0 0 1 18.02 15.263l.118.707c4.596 27.573 4.839 55.413 4.839 83.295v93.127c0 21.973-15.751 37.724-37.724 37.724z" opacity="1" data-original="#fe93d3" class=""></path><path fill="#cd2c22" d="m484.602 229.586-.118-.707a18.264 18.264 0 0 0-18.02-15.263l-30.774.006c8.872.063 16.424 6.493 17.885 15.257l.118.707a506.431 506.431 0 0 1 6.9 83.295v93.127c0 21.973-17.812 39.785-39.785 39.785h30.909c21.973 0 39.785-17.812 39.785-39.785v-93.127c0-27.883-2.304-55.722-6.9-83.295z" opacity="1" data-original="#fe73c5" class=""></path><path fill="#deecf1" d="M430.101 362.879H81.899C36.668 362.879 0 326.211 0 280.98V128.525c0-13.384 10.85-24.235 24.235-24.235h434.683l26.787 2.061c13.384 0 24.235 10.85 24.235 24.235V280.98c-.001 45.231-47.252 81.899-79.839 81.899z" opacity="1" data-original="#deecf1" class=""></path><path fill="#cbe5e8" d="M487.765 104.29h-30.909c13.384 0 24.235 10.85 24.235 24.235V280.98c0 45.232-36.668 81.9-81.9 81.9H430.1c45.232 0 81.899-36.668 81.899-81.9V128.525c.001-13.384-10.849-24.235-24.234-24.235z" opacity="1" data-original="#cbe5e8"></path><path fill="#7a6d79" d="m111.215 391.931-16.485 2.061H83.603c-5.69 0-10.302-4.612-10.302-10.302V98.832c0-5.69 4.612-10.302 10.302-10.302H94.73l16.485 2.061c5.69 0 10.302 4.612 10.302 10.302V381.63c0 5.689-4.612 10.301-10.302 10.301z" opacity="1" data-original="#7a6d79" class=""></path><path fill="#685e68" d="M113.276 88.53H92.67c5.69 0 10.302 4.612 10.302 10.302V383.69c0 5.69-4.612 10.302-10.302 10.302h20.606c5.69 0 10.302-4.612 10.302-10.302V98.832c-.001-5.689-4.613-10.302-10.302-10.302z" opacity="1" data-original="#685e68" class=""></path><path fill="#e31717" d="m324.953 202.988-36.495-2.061h-3.408a3.322 3.322 0 0 1-3.322-3.322v-41.963a3.322 3.322 0 0 0-3.322-3.322h-50.499a3.322 3.322 0 0 0-3.322 3.322v41.963a3.322 3.322 0 0 1-3.322 3.322H179.3a3.322 3.322 0 0 0-3.322 3.322v50.499a3.322 3.322 0 0 0 3.322 3.322h41.963a3.322 3.322 0 0 1 3.322 3.322v2.397l2.061 37.505a3.322 3.322 0 0 0 3.322 3.322h46.378a3.322 3.322 0 0 0 3.322-3.322v-41.963a3.322 3.322 0 0 1 3.322-3.322h41.963a3.322 3.322 0 0 0 3.322-3.322V206.31a3.322 3.322 0 0 0-3.322-3.322z" opacity="1" data-original="#fe93d3" class=""></path><path fill="#7a6d79" d="m426.337 391.931-16.485 2.061h-11.128c-5.69 0-10.302-4.612-10.302-10.302V98.832c0-5.69 4.612-10.302 10.302-10.302h11.128l16.485 2.061c5.69 0 10.302 4.612 10.302 10.302V381.63c0 5.689-4.612 10.301-10.302 10.301z" opacity="1" data-original="#7a6d79" class=""></path><path fill="#685e68" d="M428.398 88.53h-20.606c5.689 0 10.302 4.612 10.302 10.302V383.69c0 5.69-4.612 10.302-10.302 10.302h20.606c5.69 0 10.302-4.612 10.302-10.302V98.832c0-5.689-4.612-10.302-10.302-10.302zM123.269 291.692H73.61c-6.782 0-12.279-5.498-12.279-12.279v-49.659c0-6.782 5.498-12.279 12.279-12.279h49.659c6.782 0 12.279 5.498 12.279 12.279v49.659c0 6.781-5.498 12.279-12.279 12.279z" opacity="1" data-original="#685e68" class=""></path><path fill="#ffe177" d="M123.269 299.418H73.61c-11.031 0-20.006-8.974-20.006-20.006v-49.659c0-11.031 8.974-20.006 20.006-20.006h49.659c11.031 0 20.006 8.974 20.006 20.006v49.659c-.001 11.032-8.975 20.006-20.006 20.006zM73.61 225.201a4.558 4.558 0 0 0-4.553 4.553v49.659a4.558 4.558 0 0 0 4.553 4.553h49.659a4.558 4.558 0 0 0 4.553-4.553v-49.659a4.558 4.558 0 0 0-4.553-4.553z" opacity="1" data-original="#ffe177"></path><path fill="#685e68" d="M438.391 291.692h-49.659c-6.782 0-12.279-5.498-12.279-12.279v-49.659c0-6.782 5.498-12.279 12.279-12.279h49.659c6.782 0 12.279 5.498 12.279 12.279v49.659c0 6.781-5.497 12.279-12.279 12.279z" opacity="1" data-original="#685e68" class=""></path><path fill="#ffe177" d="M438.391 299.418h-49.659c-11.031 0-20.006-8.974-20.006-20.006v-49.659c0-11.031 8.975-20.006 20.006-20.006h49.659c11.031 0 20.005 8.974 20.005 20.006v49.659c0 11.032-8.973 20.006-20.005 20.006zm-49.659-74.217a4.558 4.558 0 0 0-4.553 4.553v49.659a4.558 4.558 0 0 0 4.553 4.553h49.659a4.557 4.557 0 0 0 4.552-4.553v-49.659a4.557 4.557 0 0 0-4.552-4.553z" opacity="1" data-original="#ffe177"></path><path fill="#ffd15b" d="M98.439 262.309a7.726 7.726 0 0 1-7.726-7.726v-32.664a7.726 7.726 0 1 1 15.452 0v32.664a7.726 7.726 0 0 1-7.726 7.726zM413.561 262.309a7.725 7.725 0 0 1-7.726-7.726v-34.025a7.726 7.726 0 1 1 15.452 0v34.025a7.725 7.725 0 0 1-7.726 7.726z" opacity="1" data-original="#ffd15b" class=""></path><path fill="#7a6d79" d="m328.46 65.483-39.151 2.061H177.855c-10.022 0-18.146-8.124-18.146-18.146s8.124-18.146 18.146-18.146h111.454l39.151 2.061c10.022 0 16.086 6.064 16.086 16.086 0 10.021-6.064 16.084-16.086 16.084z" opacity="1" data-original="#7a6d79" class=""></path><path fill="#685e68" d="M328.46 31.251h-41.211c10.022 0 18.146 8.124 18.146 18.146s-8.124 18.146-18.146 18.146h41.211c10.022 0 18.146-8.124 18.146-18.146 0-10.021-8.124-18.146-18.146-18.146z" opacity="1" data-original="#685e68" class=""></path><path fill="#cd2c22" d="M327.014 200.928h-38.556c-7.772 31.156-32.531 55.567-63.872 62.862v39.566a3.322 3.322 0 0 0 3.322 3.322h50.499a3.322 3.322 0 0 0 3.322-3.322v-41.963a3.322 3.322 0 0 1 3.322-3.322h41.963a3.322 3.322 0 0 0 3.322-3.322V204.25a3.322 3.322 0 0 0-3.322-3.322z" opacity="1" data-original="#fe73c5" class=""></path></g></svg>