<svg xmlns="http://www.w3.org/2000/svg" version="1.1" xmlns:xlink="http://www.w3.org/1999/xlink" width="512" height="512" x="0" y="0" viewBox="0 0 60 42" style="enable-background:new 0 0 512 512" xml:space="preserve" class=""><g><g fill="none" fill-rule="nonzero"><path fill="#ffffff" d="M51.988 31H1V3a2 2 0 0 1 2-2h38.322a7 7 0 0 1 5.824 3.117l10.667 16A7 7 0 0 1 51.988 31z" opacity="1" data-original="#f5f5f5" class=""></path><path fill="#cfd8dc" d="m57.813 20.117-10.667-16A7 7 0 0 0 41.322 1h-3a7 7 0 0 1 5.824 3.117l10.667 16A7 7 0 0 1 48.988 31h3a7 7 0 0 0 5.825-10.883z" opacity="1" data-original="#cfd8dc" class=""></path><path fill="#d20000" d="M51.99 31H1v-9h57.7a7 7 0 0 1-6.71 9z" opacity="1" data-original="#f44335" class=""></path><path fill="#b80c0c" d="M58.7 22h-3a7 7 0 0 1-6.71 9h3a7 7 0 0 0 6.71-9z" opacity="1" data-original="#c81e1e" class=""></path><rect width="58" height="5" x="1" y="36" fill="#7f8e94" rx="2" opacity="1" data-original="#7f8e94" class=""></rect><path fill="#545c60" d="M57 36h-3a2 2 0 0 1 2 2v1a2 2 0 0 1-2 2h3a2 2 0 0 0 2-2v-1a2 2 0 0 0-2-2z" opacity="1" data-original="#545c60"></path><path fill="#02a9f4" d="M48.4 6H40a2.006 2.006 0 0 0-2 2v7a2.006 2.006 0 0 0 2 2h15.73z" opacity="1" data-original="#02a9f4" class=""></path><path fill="#0377bc" d="M48.4 6h-3l7.33 11h3z" opacity="1" data-original="#0377bc" class=""></path><rect width="11" height="11" x="22" y="6" fill="#02a9f4" rx="2" opacity="1" data-original="#02a9f4" class=""></rect><path fill="#0377bc" d="M31 6h-3a2 2 0 0 1 2 2v7a2 2 0 0 1-2 2h3a2 2 0 0 0 2-2V8a2 2 0 0 0-2-2z" opacity="1" data-original="#0377bc" class=""></path><rect width="11" height="20" x="6" y="6" fill="#02a9f4" rx="2" opacity="1" data-original="#02a9f4" class=""></rect><path fill="#0377bc" d="M15 6h-3a2 2 0 0 1 2 2v16a2 2 0 0 1-2 2h3a2 2 0 0 0 2-2V8a2 2 0 0 0-2-2z" opacity="1" data-original="#0377bc" class=""></path><path fill="#607d8b" d="M41.03 31a4.5 4.5 0 1 0 8.94 0zM28.03 31a4.5 4.5 0 1 0 8.94 0z" opacity="1" data-original="#607d8b" class=""></path><g fill="#000"><path d="M3 42h54a3 3 0 0 0 3-3v-1a3 3 0 0 0-3-3h-7.261a5.479 5.479 0 0 0 1.236-3h1.013a8 8 0 0 0 6.657-12.437l-10.667-16A7.983 7.983 0 0 0 41.321 0H3a3 3 0 0 0-3 3v28a1 1 0 0 0 1 1h26.025c.1 1.102.53 2.148 1.236 3H3a3 3 0 0 0-3 3v1a3 3 0 0 0 3 3zm42.5-7a3.494 3.494 0 0 1-3.449-3h6.9a3.494 3.494 0 0 1-3.451 3zm-5.475-3c.1 1.102.53 2.148 1.236 3h-4.522a5.479 5.479 0 0 0 1.236-3zm13.841-16H40a1 1 0 0 1-1-1V8a1 1 0 0 1 1-1h7.866zM2 23h3v1a3 3 0 0 0 3 3h7a3 3 0 0 0 3-3v-1h23a1 1 0 0 0 0-2H18V8a3 3 0 0 0-3-3H8a3 3 0 0 0-3 3v13H2V3a1 1 0 0 1 1-1h38.321a5.987 5.987 0 0 1 4.992 2.672l.219.328H40a3 3 0 0 0-3 3v7a3 3 0 0 0 3 3h15.2l1.781 2.672c.072.106.125.219.189.328H46a1 1 0 0 0 0 2h11.912a6.014 6.014 0 0 1-5.924 7H2zm14 1a1 1 0 0 1-1 1H8a1 1 0 0 1-1-1V8a1 1 0 0 1 1-1h7a1 1 0 0 1 1 1zm13.051 8h6.9a3.483 3.483 0 0 1-6.9 0zM2 38a1 1 0 0 1 1-1h54a1 1 0 0 1 1 1v1a1 1 0 0 1-1 1H3a1 1 0 0 1-1-1z" fill="#000000" opacity="1" data-original="#000000" class=""></path><path d="M31 5h-7a3 3 0 0 0-3 3v7a3 3 0 0 0 3 3h7a3 3 0 0 0 3-3V8a3 3 0 0 0-3-3zm1 10a1 1 0 0 1-1 1h-7a1 1 0 0 1-1-1V8a1 1 0 0 1 1-1h7a1 1 0 0 1 1 1zM13 9h-3a1 1 0 1 0 0 2h3a1 1 0 0 0 0-2zM13 13h-3a1 1 0 0 0 0 2h3a1 1 0 0 0 0-2z" fill="#000000" opacity="1" data-original="#000000" class=""></path></g></g></g></svg>